<svg xmlns="http://www.w3.org/2000/svg" xmlns:xlink="http://www.w3.org/1999/xlink" width="264px" height="280px" viewBox="0 0 264 280" version="1.1">
    <title id="circle_Title">Avataaar/Circle</title>
    <desc>Created with python_avatars</desc>
    <defs>
        <circle id="circle_path-1" cx="120" cy="120" r="120" />
        <path d="M-3.19744231e-14,160 L-3.19744231e-14,-1.42108547e-14 L264,-1.42108547e-14 L264,160 L252,160 C252,226.27417 198.27417,280 132,280 C65.72583,280 12,226.27417 12,160 L12,160 L-3.19744231e-14,160 Z" id="circle_path-3" />
        <path d="M100,0 C130.927946,-5.68137151e-15 156,25.072054 156,56 L156.000809,62.1660527 C161.675838,63.1185422 166,68.05429 166,74 L166,88 C166,94.0524166 161.519235,99.0582945 155.693975,99.8813638 C153.627928,119.686472 141.237929,136.421678 124.001014,144.610469 L124,163 L128,163 C167.764502,163 200,195.235498 200,235 L200,244 L0,244 L0,235 C-4.86974701e-15,195.235498 32.235498,163 72,163 L76,163 L75.9999836,144.610943 C58.7625487,136.422324 46.3721119,119.686854 44.3051107,99.8809698 C38.480765,99.0582945 34,94.0524166 34,88 L34,74 C34,68.053942 38.3246685,63.1179645 44.0001873,62.1658855 L44,56 C44,25.072054 69.072054,5.68137151e-15 100,0 Z" id="circle_path-5" />
        <path d="M83,36.3476251 C83,52.6289957 105.161905,65.8276544 132.5,65.8276544 C159.838095,65.8276544 182,52.6289957 182,36.3476251 C182,34.9853134 181.844841,33.6445843 181.544472,32.3313638 C210.784239,41.4879251 232,68.792221 232,101.051724 L232,110 L32,110 L32,101.051724 C32,68.3970853 53.7386736,40.8197864 83.5337207,32.0021267 C83.1821692,33.4207025 83,34.871494 83,36.3476251 Z" id="circle_path-7" />
        <rect id="circle_path-9" x="0" y="0" width="264" height="280" />
        <path d="M74,0 C114.869071,0 148,33.1309285 148,74 L148,84.1482318 L148,197.608051 C135.525121,187.236892 119.490913,181 102,181 L102,181 L98,181 L98,162.610951 C115.530782,154.282984 128.048193,137.114792 129.791419,116.867187 C135.569129,116.002364 140,111.018625 140,105 L140,105 L140,92 C140,87.3536213 137.359271,83.3240177 133.496777,81.3301515 C132.723933,81.0500337 131.951808,80.748163 131.180891,80.4262497 C130.794819,80.3202581 130.400778,80.2331546 130,80.1659169 L130,80.1659169 L130.000458,79.9172528 C117.224481,74.2339715 104.877985,63.0706967 96.1104311,47.8848473 C93.1752556,42.8009742 90.8310687,37.5951441 89.0661426,32.3970356 C80.4313947,42.9409152 67.7445474,53.6023901 52.3415164,62.4953343 C42.777598,68.0170651 33.1467898,72.2910056 24,75.2659587 L24.0003852,137.246608 C29.6019576,148.318362 38.7728825,157.277529 50,162.610951 L50,162.610951 L50,181 L46,181 C38.3273639,181 30.9350359,182.200142 24.0004995,184.422941 L24,230 C24,244.105888 13.5691766,255.775526 0,257.716445 L0,74 C0,33.1309285 33.1309285,0 74,0 Z" id="circle_path-11" />
    </defs>
    <g id="circle_Avataaar/Circle" stroke="none" stroke-width="1" fill="none" fill-rule="evenodd">
        <g id="circle_Circle" transform="translate(12.000000, 40.000000)">
            <mask id="circle_mask-2" fill="white">
                <use xlink:href="#circle_path-1" />
            </mask>
            <use id="circle_Background-Color" fill="#262E33" xlink:href="#circle_path-1" />
            <g id="circle_Fabric-Color" mask="url(#circle_mask-2)" fill="">
                <rect id="circle_ðŸ–Color" x="0" y="0" width="240" height="240" />
            </g>
        </g>
        <mask id="circle_mask-4" fill="white">
            <use xlink:href="#circle_path-3" />
        </mask>
        <g id="circle_Mask" />
        <g id="circle_Avataaar" mask="url(#circle_mask-4)">
            <g id="circle_Body" transform="translate(32.000000, 36.000000)">
                <mask id="circle_mask-6" fill="white">
                    <use xlink:href="#circle_path-5" />
                </mask>
                <use fill="#D0C6AC" xlink:href="#circle_path-5" />
                <g id="circle_Skin-Color" mask="url(#circle_mask-6)" fill="#AE5D29">
                    <g transform="translate(-32.000000, 0.000000)" id="circle_Color">
                        <rect x="0" y="0" width="264" height="244" />
                    </g>
                </g>
                <path d="M44,94 C44,124.927946 69.072054,150 100,150 C130.927946,150 156,124.927946 156,94 L156,94 L156,102 C156,132.927946 130.927946,158 100,158 C69.072054,158 44,132.927946 44,102 Z" id="circle_Neck-Shadow" fill-opacity="0.100000001" fill="#000000" mask="url(#circle_mask-6)" />
            </g>
            <g id="circle_Clothing" transform="translate(0.000000, 170.000000)">
                
            <defs>
        <path d="M99,32.5 C99,44.3741221 113.998461,54 132.5,54 C151.001539,54 166,44.3741221 166,32.5 C166,31.4019929 165.871751,30.3232102 165.624342,29.2694852 C202.75978,32.1370674 232,63.1796858 232,101.051724 L232,110 L32,110 L32,101.051724 C32,62.8342194 61.7761079,31.571298 99.3946469,29.196636 C99.1341902,30.2738104 99,31.3768477 99,32.5 Z" id="graphic_shirt_path-1" />
    </defs>
    <g id="graphic_shirt_Clothing/Graphic-Shirt" stroke="none" stroke-width="1" fill="none" fill-rule="evenodd">
        <mask id="graphic_shirt_mask-2" fill="white">
            <use xlink:href="#graphic_shirt_path-1" />
        </mask>
        <use id="graphic_shirt_Clothes" fill="#E6E6E6" xlink:href="#graphic_shirt_path-1" />
        <g id="graphic_shirt_Fabric-Color" mask="url(#graphic_shirt_mask-2)" fill="#FFFFB1">
            <rect id="graphic_shirt_ðŸ–Color" x="0" y="0" width="264" height="110" />
        </g>
        <g id="graphic_shirt_Graphic" fill="#FFFFFF" transform="translate(77.000000, 58.000000)">
        <g id="selena_Clothing/Graphic/Selena" stroke="none" stroke-width="1" fill="none" fill-rule="evenodd">
        <g id="selena_Selena" transform="translate(17.000000, 0.000000)" fill="#FFFFFF">
            <path d="M65.3033729,7.56759412 C65.1470447,8.49857487 63.3805357,12.656817 62.0741755,10.5184706 C61.5650892,9.68550605 62.4755312,7.05707864 62.7589611,6.30931546 C63.3169849,4.836648 63.7329539,4.67144048 65.0219821,3.97805378 C65.1307322,5.16706304 65.4331933,6.37685313 65.3033729,7.56759412 M62.3188632,10.8866375 C62.3487694,10.8987596 62.4772304,11.018942 62.3188632,10.8866375 M62.3110467,10.8804032 C62.3052694,10.8755544 62.3107069,10.8800569 62.3110467,10.8804032 M55.0298897,6.20471867 C55.040085,6.21337734 55.0829054,6.246973 55.0298897,6.20471867 M42.5545574,11.1605979 C42.3475925,12.3804321 42.0797954,13.5995735 41.6509123,14.760875 C41.48167,13.0294864 41.7542249,11.3046783 42.651413,9.81019097 C42.6412176,10.2618275 42.6089325,10.7120786 42.5545574,11.1605979 M42.544702,8.65858718 C42.5406238,8.64334792 42.3859948,8.41891506 42.544702,8.65858718 M25.9083201,18.8030909 C26.0609101,17.2701591 26.6763675,15.7860622 27.8141651,14.7591433 C27.5371923,16.3838571 26.7416175,17.4294787 25.9083201,18.8030909 M75.8371766,5.29694317 C75.8371766,5.93422166 73.7787416,7.63166832 73.2635382,8.10027581 C72.3850415,8.898952 71.4487714,9.53969396 70.1865909,9.35370562 C66.7252801,8.84422918 68.0968903,5.14766761 67.5456634,2.87251415 C67.1120225,1.08501726 66.6671667,1.75900853 65.4641191,1.64644576 C64.3456926,1.54219531 63.9460361,0.990464532 62.7824103,1.83312679 C60.685573,3.35151205 59.0159196,5.32915344 58.1231495,7.8135005 C57.7992782,6.11813191 56.8776214,3.30960407 54.6706746,3.71967892 C53.0387439,4.02273255 51.6868446,6.64596475 51.0078363,7.96277605 C50.95618,6.76545446 50.3403828,4.88721467 48.8328349,5.74476985 C47.7973303,6.3339061 47.8418499,9.12615564 47.615174,10.1548062 C47.1499276,12.2664839 46.236427,17.7723622 42.9708663,17.056463 C43.999574,15.1377006 46.2510403,9.08632573 44.3207265,7.1194211 C41.6091115,4.35730375 39.5459188,11.2748924 39.4354695,12.9584852 C39.355946,14.1644655 40.2405598,16.9030312 39.7637588,17.6511408 C39.1788873,18.568614 37.3362533,18.9641423 36.4608152,18.2922291 C35.0562401,17.2143972 35.6101858,15.4622277 35.9313383,14.093118 C36.3527448,12.2990405 36.5512137,10.495958 36.6650614,8.65616275 C36.7503623,7.27631629 37.951031,1.10787617 35.6370334,1.02406019 C33.5415555,0.948902892 33.3281335,6.16211798 33.1786022,7.58664321 C32.9944067,9.33812 32.8825981,11.1121094 32.94377,12.8746693 C33.0056216,14.6573173 33.3376491,15.8449412 32.6467463,17.5181435 C31.9065662,19.3108356 28.3834038,24.6889119 26.2743321,21.1180743 C28.5142437,20.1354878 31.1850774,15.5997275 29.9833892,13.0506135 C28.317474,9.51683506 24.5679755,14.9018383 24.024565,16.7073452 C23.1474277,19.6222016 23.5328108,23.4292478 26.8877504,24.3782386 C30.3810066,25.366713 33.0780083,22.0916557 34.309263,19.1975801 C35.3107832,20.7859275 37.1544368,21.1842266 38.8580746,20.7031506 C39.5350438,20.5116207 40.1861848,20.1822447 40.7496461,19.7555452 C41.8198148,18.9457859 41.1934823,19.2471078 42.3292409,19.2142048 C45.6264071,19.1196521 47.4252012,18.0612156 48.660534,14.6690931 C48.6459207,15.6031909 49.0041163,17.0287552 50.2588202,16.5178934 C51.2334927,16.1209797 51.2266958,14.5083881 51.4074928,13.6480621 C51.9774112,10.935126 52.8729,8.10651006 55.0057608,6.22584583 C56.8466956,8.22807786 55.4856205,11.6534497 56.6968244,13.7862546 C58.5635873,17.0737803 59.5035957,11.2537653 59.7962014,10.1319473 C59.8526155,15.0140547 65.6574903,13.2158211 66.9135536,9.97505214 C70.2130987,13.4901279 77.1479547,10.3238236 75.8371766,5.29694317" id="selena_Bom-Bom" />
            <path d="M69.433817,15.3488372 C65.8038135,15.3488372 61.8287631,16.3747039 58.3068219,17.1662556 C54.7602589,17.9637144 51.2314783,18.9518414 47.8046046,20.1368717 C43.9335128,21.4748303 39.9926593,22.6897243 36.2145831,24.2580599 C32.9385178,25.6183343 28.7066484,26.6107275 26.7027027,29.6738881 C26.6986051,29.6824206 28.8051356,29.5856097 28.9754363,29.5573869 C30.0242559,29.3834556 30.9267127,29.0139335 31.8924339,28.6010927 C33.6392127,27.8548288 35.3740227,27.0823111 37.115672,26.3248894 C41.0202768,24.6265975 45.0951823,23.2295678 49.1044296,21.7708418 C53.1003402,20.3176946 57.1991835,19.0860638 61.3588973,18.1455219 C64.7498643,17.3792395 68.5409353,17.2322183 71.6624305,15.8729284 C71.5444511,15.9172317 71.6210523,15.887368 71.8918919,15.7816965 C71.813239,15.8197645 69.6708017,15.3488372 69.433817,15.3488372" id="selena_Bidi" />
            <path d="M22.1170349,20.8250383 C19.8478706,19.8267659 16.6395075,20.267131 14.2823358,20.5862701 C12.1385566,20.8762747 8.78577979,21.5209156 7.44867865,21.6937129 C6.34297926,21.8346967 3.04321074,22.7348497 2.4393915,21.4968044 C1.79003946,20.1656628 5.15878677,16.0935417 5.89512684,15.1341152 C9.20984643,10.8135143 13.1946457,6.01370248 17.9749097,3.21110531 C17.5345328,5.16177188 17.1498826,7.12884748 16.7479027,9.08721625 C16.5824216,9.89460802 15.79851,14.2513757 17.2338124,14.5946261 C17.8233602,14.735275 19.0058537,11.8121216 19.104055,11.5505816 C19.9270433,9.36181652 20.1163103,6.84118695 20.4951839,4.54927932 C20.7119744,3.23789558 21.6953468,0.499260193 19.8009787,0.0471743805 C18.1723317,-0.341619419 15.9646707,1.77447706 14.8776601,2.66558843 C11.5962407,5.35767573 8.75146029,8.61302846 6.0905101,11.8864646 C4.78025293,13.4985691 3.4761121,15.1200503 2.37686886,16.8831849 C1.47300888,18.3332083 -0.712565331,21.3735691 0.232070287,23.1651685 C1.92969602,26.3860287 10.0715716,23.5626691 12.663543,23.133355 C14.708781,22.7941232 16.8162019,22.4729748 18.8913421,22.7566168 C21.0534703,23.0519796 20.9484731,24.0274803 20.2298024,25.953031 C18.7520254,29.9126329 15.4539558,33.3136578 12.5058772,36.2726431 C11.2071731,37.5759898 6.1251694,43.6918736 4.84549395,40.3641872 C3.97595347,38.1030884 4.74525384,35.3289559 5.74561617,33.2503658 C6.21419621,32.2765394 6.8346655,31.3887768 7.32329357,30.4256666 C7.45649398,30.163122 8.12453486,28.0011471 8.27030776,27.9529247 C4.4003599,29.303824 2.15328244,34.538308 1.93751135,38.2397187 C1.83591206,39.9810863 2.07376995,42.5640033 3.73741598,43.6084889 C5.40174162,44.6533095 6.96378836,43.3814414 8.28661802,42.4230195 C11.9289019,39.7838429 15.1780407,36.4246779 18.1519439,33.0879497 C19.7778725,31.2635323 26.6054133,22.8014905 22.1170349,20.8250383" id="selena_Bidi" />
        </g>
    </g>
</g>
    </g>
</g>
            <g id="circle_Face" transform="translate(76.000000, 82.000000)" fill="#000000">
                <g id="circle_Mouth" transform="translate(2.000000, 52.000000)">    
                    
                <defs>
        <path d="M35.117844,15.1280772 C36.1757121,24.6198025 44.2259873,32 54,32 C63.8042055,32 71.8740075,24.574136 72.8917593,15.0400546 C72.9736685,14.272746 72.1167429,13 71.042767,13 C56.1487536,13 44.7379213,13 37.0868244,13 C36.0066168,13 35.0120058,14.1784435 35.117844,15.1280772 Z" id="smile_path-1" />
    </defs>
    <g id="smile_Mouth/Smile" stroke="none" stroke-width="1" fill="none" fill-rule="evenodd">
        <mask id="smile_mask-2" fill="white">
            <use xlink:href="#smile_path-1" />
        </mask>
        <use id="smile_Mouth" fill-opacity="0.699999988" fill="#000000" xlink:href="#smile_path-1" />
        <path d="M44,2 L65,2 C67.7614237,2 70,4.23857625 70,7 L70,13 C70,15.7614237 67.7614237,18 65,18 L44,18 C41.2385763,18 39,15.7614237 39,13 L39,7 C39,4.23857625 41.2385763,2 44,2 Z" id="smile_Teeth" fill="#FFFFFF" mask="url(#smile_mask-2)" />
        <g id="smile_Tongue" mask="url(#smile_mask-2)" fill="#FF4F6D">
            <g transform="translate(38.000000, 24.000000)">
                <circle cx="11" cy="11" r="11" />
                <circle cx="21" cy="11" r="11" />
            </g>
        </g>
    </g>
</g>
                <g id="circle_Nose" transform="translate(28.000000, 40.000000)" fill-opacity="0.16">
                    
                <g id="default_Nose/Default" stroke="none" stroke-width="1" fill="none" fill-rule="evenodd" fill-opacity="0.16">
        <path d="M16,8 C16,12.418278 21.372583,16 28,16 L28,16 C34.627417,16 40,12.418278 40,8" id="default_Nose" fill="#000000" />
    </g>
</g>
                <g id="circle_Eyes" transform="translate(0.000000, 8.000000)">
                    
                <g id="wink_wacky_Eyes/Wink-Wacky-ðŸ˜œ" stroke="none" stroke-width="1" fill="none" fill-rule="evenodd">
        <circle id="wink_wacky_Cornea?-I-don't-know" fill="#FFFFFF" cx="82" cy="22" r="12" />
        <circle id="wink_wacky_Eye" fill-opacity="0.699999988" fill="#000000" cx="82" cy="22" r="6" />
        <path d="M16.1601674,25.4473116 C18.006676,21.648508 22.1644225,19 26.9975803,19 C31.8136766,19 35.9591217,21.629842 37.8153518,25.4071242 C38.3667605,26.5291977 37.5821037,27.4474817 36.790607,26.7670228 C34.3395063,24.6597833 30.8587163,23.3437884 26.9975803,23.3437884 C23.2572061,23.3437884 19.8737584,24.5787519 17.4375392,26.5716412 C16.5467928,27.3002944 15.6201012,26.5583844 16.1601674,25.4473116 Z" id="wink_wacky_Winky-Doodle" fill-opacity="0.599999964" fill="#000000" />
    </g>
</g>
                <g id="circle_Eyebrow" fill-opacity="0.599999964">
                    
                <g id="sad_concerned_natural_Eyebrow/Natural/Sad-Concerned-Natural" stroke="none" stroke-width="1" fill="none" fill-rule="evenodd" fill-opacity="0.599999964">
        <path d="M22.7663531,5.57844898 L23.6772984,5.17582144 C28.9190996,3.09473425 36.8645466,3.96712704 41.7227321,6.29911638 C42.2897848,6.57148957 41.9021563,7.4519421 41.3211012,7.40711006 C26.4021788,6.25602197 16.3582869,15.5525942 12.9460869,21.8470939 C12.8449215,22.0337142 12.5391523,22.05489 12.4635344,21.8808353 C10.156283,16.5620676 16.9134476,7.89614725 22.7663531,5.57844898 Z" id="sad_concerned_natural_Eyebrow" fill="#000000" transform="translate(27.000000, 13.000000) scale(-1, -1) translate(-27.000000, -13.000000) " />
        <path d="M80.7663531,5.57844898 L81.6772984,5.17582144 C86.9190996,3.09473425 94.8645466,3.96712704 99.7227321,6.29911638 C100.289785,6.57148957 99.9021563,7.4519421 99.3211012,7.40711006 C84.4021788,6.25602197 74.3582869,15.5525942 70.9460869,21.8470939 C70.8449215,22.0337142 70.5391523,22.05489 70.4635344,21.8808353 C68.156283,16.5620676 74.9134476,7.89614725 80.7663531,5.57844898 Z" id="sad_concerned_natural_Eyebrow" fill="#000000" transform="translate(85.000000, 13.000000) scale(1, -1) translate(-85.000000, -13.000000) " />
    </g>
</g>
            </g>
            <g id="circle_Top">
                
            <defs>
        <path d="M133,21 C170.555363,21 201,51.444637 201,89 L201.000245,119.753766 C201.875364,129.555661 202.694017,136.42251 203.456205,140.354314 C204.833317,147.458254 209.150269,145.115419 209.150269,155.220201 C209.150269,165.324983 204.822005,168.720206 204.803237,177.705482 C204.784469,186.690758 220.200444,193.836185 220.200444,205.242606 C220.200444,216.649027 213.126079,270.475928 142.577598,270.475928 C127.5064,270.475928 114.669087,266.188114 104.065659,257.612487 C104.750012,264.100919 105.394345,271.56427 106,280 L59,280 C59.9324304,256.228591 51.7156549,242.936205 51.7156549,216.44564 C51.7156549,189.955074 65.3525844,151.427541 65,142 C65.0200007,141.417167 65.0407129,140.727058 65.0621367,139.929671 C65.0207824,138.957577 65,137.981215 65,137 L65,89 C65,85.028564 65.3404568,81.136646 65.9937764,77.3518399 C65.9972134,77.235483 65.9986062,77.1178188 66,77 L66.0417381,77.0773569 C71.6781449,45.2070316 99.5121448,21 133,21 Z M133.5,53 L132.5,53 C102.701476,53 78.4885795,76.9149116 78.0073014,106.598743 L78,107.5 L78,130.5 C78,160.298524 101.914912,184.51142 131.598743,184.992699 L132.5,185 L133.5,185 C163.298524,185 187.51142,161.085088 187.992699,131.401257 L188,130.5 L188,107.5 C188,77.4004811 163.599519,53 133.5,53 Z" id="hijab_path-1" />
    </defs>
    <g id="hijab_Top/Accesories/Hijab" stroke="none" stroke-width="1" fill="none" fill-rule="evenodd">
        <mask id="hijab_mask-2" fill="white">
            <use xlink:href="#hijab_path-1" />
        </mask>
        <use id="hijab_Hijab-Mask" fill="#3B6BAD" xlink:href="#hijab_path-1" />
        <g id="hijab_Fabric-Color" mask="url(#hijab_mask-2)" fill="#5199E4">
            <g transform="translate(1.000000, 0.000000)" id="hijab_ðŸ–Color">
                <rect x="0" y="0" width="264" height="280" />
            </g>
        </g>
        <path d="M133,32 C167.241654,32 195,59.5344879 195,93.5 C195,97.4141209 194.631374,101.242839 193.926681,104.953859 C192.337949,72.6795523 165.667865,47 133,47 C100.332135,47 73.6620513,72.6795523 72.0747431,104.953662 C71.3686258,101.242839 71,97.4141209 71,93.5 C71,59.5344879 98.7583455,32 133,32 Z" id="hijab_Band" fill-opacity="0.5" fill="#FFFFFF" mask="url(#hijab_mask-2)" />
        <path d="M198.660942,209.48908 C198.803459,209.809218 198.935281,210.135314 199.056117,210.46731 C203.582768,222.904181 190.979008,238.909268 170.904831,246.215671 C150.830654,253.522074 130.887742,249.363007 126.361091,236.926135 C126.240141,236.593827 126.131421,236.258972 126.034746,235.921803 C134.227886,241.574991 150.422157,241.843679 167.103682,235.772101 C183.568589,229.779365 195.699579,219.360143 198.552415,209.862922 L198.646069,209.539518 L198.660942,209.48908 Z M187.049242,194.145364 C187.118458,194.397272 187.175487,194.652674 187.221114,194.911435 C188.930607,204.606451 173.985409,215.345413 153.84008,218.897578 C133.694752,222.449742 115.977919,217.469978 114.268426,207.774963 C114.22282,207.516318 114.189067,207.256931 114.166951,206.996957 C120.653557,211.981298 135.664804,213.70809 152.404574,210.756416 C169.144709,207.804679 182.660294,201.047647 187.049242,194.145364 Z M189,115.5 L189,138.5 C189,168.599519 164.599519,193 134.5,193 L131.5,193 C101.400481,193 77,168.599519 77,138.5 L77,115.5 C77,111.802009 77.368308,108.19004 78.0702426,104.698776 C78.0237579,105.627122 78,106.560787 78,107.5 L78,107.5 L78,130.5 C78,160.599519 102.400481,185 132.5,185 L132.5,185 L133.5,185 C163.599519,185 188,160.599519 188,130.5 L188,130.5 L188,107.5 C188,106.560787 187.976242,105.627122 187.929295,104.699575 C188.631692,108.19004 189,111.802009 189,115.5 Z" id="hijab_Shadows" fill-opacity="0.16" fill="#000000" opacity="0.899999976" mask="url(#hijab_mask-2)" />
        <g id="hijab_Accessory" transform="translate(62.000000, 85.000000)">
        </g>
    </g>
</g>
        </g>
    </g>
</svg>