<svg xmlns="http://www.w3.org/2000/svg" xmlns:xlink="http://www.w3.org/1999/xlink" width="264px" height="280px" viewBox="0 0 264 280" version="1.1">
    <title id="transparent_Title">Avataaar/Default</title>
    <desc>Created with python_avatars</desc>
    <defs>
        <path d="M100,0 C130.927946,-5.68137151e-15 156,25.072054 156,56 L156.000809,62.1660527 C161.675838,63.1185422 166,68.05429 166,74 L166,88 C166,94.0524166 161.519235,99.0582945 155.693975,99.8813638 C153.627928,119.686472 141.237929,136.421678 124.001014,144.610469 L124,163 L128,163 C167.764502,163 200,195.235498 200,235 L200,244 L0,244 L0,235 C-4.86974701e-15,195.235498 32.235498,163 72,163 L76,163 L75.9999836,144.610943 C58.7625487,136.422324 46.3721119,119.686854 44.3051107,99.8809698 C38.480765,99.0582945 34,94.0524166 34,88 L34,74 C34,68.053942 38.3246685,63.1179645 44.0001873,62.1658855 L44,56 C44,25.072054 69.072054,5.68137151e-15 100,0 Z" id="transparent_path-1" />
        <path d="M83,36.3476251 C83,52.6289957 105.161905,65.8276544 132.5,65.8276544 C159.838095,65.8276544 182,52.6289957 182,36.3476251 C182,34.9853134 181.844841,33.6445843 181.544472,32.3313638 C210.784239,41.4879251 232,68.792221 232,101.051724 L232,110 L32,110 L32,101.051724 C32,68.3970853 53.7386736,40.8197864 83.5337207,32.0021267 C83.1821692,33.4207025 83,34.871494 83,36.3476251 Z" id="transparent_path-3" />
        <rect id="transparent_path-5" x="0" y="0" width="264" height="280" />
        <path d="M74,0 C114.869071,0 148,33.1309285 148,74 L148,84.1482318 L148,197.608051 C135.525121,187.236892 119.490913,181 102,181 L102,181 L98,181 L98,162.610951 C115.530782,154.282984 128.048193,137.114792 129.791419,116.867187 C135.569129,116.002364 140,111.018625 140,105 L140,105 L140,92 C140,87.3536213 137.359271,83.3240177 133.496777,81.3301515 C132.723933,81.0500337 131.951808,80.748163 131.180891,80.4262497 C130.794819,80.3202581 130.400778,80.2331546 130,80.1659169 L130,80.1659169 L130.000458,79.9172528 C117.224481,74.2339715 104.877985,63.0706967 96.1104311,47.8848473 C93.1752556,42.8009742 90.8310687,37.5951441 89.0661426,32.3970356 C80.4313947,42.9409152 67.7445474,53.6023901 52.3415164,62.4953343 C42.777598,68.0170651 33.1467898,72.2910056 24,75.2659587 L24.0003852,137.246608 C29.6019576,148.318362 38.7728825,157.277529 50,162.610951 L50,162.610951 L50,181 L46,181 C38.3273639,181 30.9350359,182.200142 24.0004995,184.422941 L24,230 C24,244.105888 13.5691766,255.775526 0,257.716445 L0,74 C0,33.1309285 33.1309285,0 74,0 Z" id="transparent_path-7" />
    </defs>
    <g id="transparent_Avataaar/Default" stroke="none" stroke-width="1" fill="none" fill-rule="evenodd">
        <g id="transparent_Body" transform="translate(32.000000, 36.000000)">
            <mask id="transparent_mask-2" fill="white">
                <use xlink:href="#transparent_path-1" />
            </mask>
            <use fill="#D0C6AC" xlink:href="#transparent_path-1" />
            <g id="transparent_Skin-Color" mask="url(#transparent_mask-2)" fill="#EDB98A">
                <g transform="translate(-32.000000, 0.000000)" id="transparent_Color">
                    <rect x="0" y="0" width="264" height="244" />
                </g>
            </g>
            <path d="M44,94 C44,124.927946 69.072054,150 100,150 C130.927946,150 156,124.927946 156,94 L156,94 L156,102 C156,132.927946 130.927946,158 100,158 C69.072054,158 44,132.927946 44,102 Z" id="transparent_Neck-Shadow" fill-opacity="0.100000001" fill="#000000" mask="url(#transparent_mask-2)" />
        </g>
        <g id="transparent_Clothing" transform="translate(0.000000, 170.000000)">
            
        <defs>
        <path d="M67,1.34762511 C67,13.2107177 81.9984609,22.8276544 100.5,22.8276544 C119.001539,22.8276544 134,13.2107177 134,1.34762511 C134,0.994756918 133.98673,0.64387605 133.960492,0.295176488 C170.936371,3.3248899 200,34.2942196 200,72.0517235 L200,81 L0,81 L0,72.0517235 C-4.66584974e-15,33.952169 29.5925972,2.76433598 67.0465686,0.219447423 C67.0151943,0.594730017 67,0.970039821 67,1.34762511 Z" id="blazer_shirt_path-1" />
    </defs>
    <g id="blazer_shirt_Clothing/Blazer-+-Shirt" stroke="none" stroke-width="1" fill="none" fill-rule="evenodd">
        <g id="blazer_shirt_Shirt" transform="translate(32.000000, 29.000000)">
            <mask id="blazer_shirt_mask-2" fill="white">
                <use xlink:href="#blazer_shirt_path-1" />
            </mask>
            <use id="blazer_shirt_Clothes" fill="#E6E6E6" xlink:href="#blazer_shirt_path-1" />
            <g id="blazer_shirt_Fabric-Color" mask="url(#blazer_shirt_mask-2)" fill="#25557C">
                <g transform="translate(-32.000000, -29.000000)" id="blazer_shirt_ðŸ–Color">
                    <rect x="0" y="0" width="264" height="110" />
                </g>
            </g>
            <g id="blazer_shirt_Shadowy" opacity="0.599999964" mask="url(#blazer_shirt_mask-2)" fill="#000000" fill-opacity="0.16">
                <g transform="translate(60.000000, -25.000000)" id="blazer_shirt_Hola-ðŸ‘‹ðŸ¼">
                    <ellipse cx="40.5" cy="27.8476251" rx="39.6351047" ry="26.9138272" />
                </g>
            </g>
        </g>
        <g id="blazer_shirt_Blazer" transform="translate(32.000000, 28.000000)">
            <path d="M64,40.5 C64,55.7092257 65.9608691,69.9209213 69.3620096,82.0011822 L0,82 L0,73.0517235 C-4.73779789e-15,34.3646678 30.512279,2.80413671 68.7847355,1.12223161 C65.7400343,12.7307619 64,26.1727873 64,40.5 Z M200,73.0517235 L200,82 L131.63799,82.0011822 C135.039131,69.9209213 137,55.7092257 137,40.5 C137,26.194165 135.265154,12.7708778 132.228695,1.1737534 C170.025091,3.36299447 200,34.7068514 200,73.0517235 Z" id="blazer_shirt_Saco" fill="#3A4C5A" />
            <path d="M149,58 L158.555853,50.83311 C159.998897,49.7508275 161.987779,49.7682725 163.411616,50.8757011 L170,56 L170,56 L149,58 Z" id="blazer_shirt_Pocket-hanky" fill="#E6E6E6" />
            <path d="M69,0 C65,19.3333333 66.6666667,46.6666667 74,82 L58,82 L44,46 L50,37 L44,31 L63,1 C65.027659,0.369238637 67.027659,0.0359053037 69,0 Z" id="blazer_shirt_Wing" fill="#2F4351" />
            <path d="M151,0 C147,19.3333333 148.666667,46.6666667 156,82 L140,82 L126,46 L132,37 L126,31 L145,1 C147.027659,0.369238637 149.027659,0.0359053037 151,0 Z" id="blazer_shirt_Wing" fill="#2F4351" transform="translate(141.000000, 41.000000) scale(-1, 1) translate(-141.000000, -41.000000) " />
        </g>
    </g>
</g>
        <g id="transparent_Face" transform="translate(76.000000, 82.000000)" fill="#000000">
            <g id="transparent_Mouth" transform="translate(2.000000, 52.000000)">    
                
            <g id="default_Mouth/Default" stroke="none" stroke-width="1" fill="none" fill-rule="evenodd" fill-opacity="0.699999988">
        <path d="M40,15 C40,22.7319865 46.2680135,29 54,29 L54,29 C61.7319865,29 68,22.7319865 68,15" id="default_Mouth" fill="#000000" />
    </g>
</g>
            <g id="transparent_Nose" transform="translate(28.000000, 40.000000)" fill-opacity="0.16">
                
            <g id="default_Nose/Default" stroke="none" stroke-width="1" fill="none" fill-rule="evenodd" fill-opacity="0.16">
        <path d="M16,8 C16,12.418278 21.372583,16 28,16 L28,16 C34.627417,16 40,12.418278 40,8" id="default_Nose" fill="#000000" />
    </g>
</g>
            <g id="transparent_Eyes" transform="translate(0.000000, 8.000000)">
                
            <g id="closed_Eyes/Closed-ðŸ˜Œ" stroke="none" stroke-width="1" fill="none" fill-rule="evenodd" fill-opacity="0.599999964">
        <path d="M16.1601674,32.4473116 C18.006676,28.648508 22.1644225,26 26.9975803,26 C31.8136766,26 35.9591217,28.629842 37.8153518,32.4071242 C38.3667605,33.5291977 37.5821037,34.4474817 36.790607,33.7670228 C34.3395063,31.6597833 30.8587163,30.3437884 26.9975803,30.3437884 C23.2572061,30.3437884 19.8737584,31.5787519 17.4375392,33.5716412 C16.5467928,34.3002944 15.6201012,33.5583844 16.1601674,32.4473116 Z" id="closed_Closed-Eye" fill="#000000" transform="translate(27.000000, 30.000000) scale(1, -1) translate(-27.000000, -30.000000) " />
        <path d="M74.1601674,32.4473116 C76.006676,28.648508 80.1644225,26 84.9975803,26 C89.8136766,26 93.9591217,28.629842 95.8153518,32.4071242 C96.3667605,33.5291977 95.5821037,34.4474817 94.790607,33.7670228 C92.3395063,31.6597833 88.8587163,30.3437884 84.9975803,30.3437884 C81.2572061,30.3437884 77.8737584,31.5787519 75.4375392,33.5716412 C74.5467928,34.3002944 73.6201012,33.5583844 74.1601674,32.4473116 Z" id="closed_Closed-Eye" fill="#000000" transform="translate(85.000000, 30.000000) scale(1, -1) translate(-85.000000, -30.000000) " />
    </g>
</g>
            <g id="transparent_Eyebrow" fill-opacity="0.599999964">
                
            <g id="unibrow_natural_Eyebrow/Natural/Unibrow-Natural" stroke="none" stroke-width="1" fill="none" fill-rule="evenodd" fill-opacity="0.599999964">
        <path d="M57.000525,12 C56.999825,11.9961 56.999825,11.9961 57.000525,12 M96.2812935,8.14993193 C97.7243204,8.76008291 105.241692,14.8939029 103.822605,17.5722412 C103.563259,18.0619945 102.91024,18.1443003 102.524546,17.7511372 C101.997542,17.2147893 100.987756,16.584232 100.86041,16.507708 C95.8563653,13.4967455 89.636055,14.1895424 84.1715051,15.0153209 C78.0153663,15.945512 71.9486685,18.0766191 65.7030886,17.0505179 C64.112573,16.7893996 61.3100901,16.0581965 59.4577569,14.8912505 C59.2166111,15.3812089 58.7733181,15.7165315 58.0750241,15.6547468 C55.8451696,15.4574504 57.5922879,12 58.7633758,12 C58.9879322,12 59.1830493,12.1416326 59.3360395,12.3691906 C60.6258515,12.2076142 61.9177831,11.6174215 63.2409655,11.2908151 C66.9279989,10.3803501 70.6888462,9.98718701 74.4284137,9.38927986 C81.0899445,8.32440654 89.7471082,5.39200867 96.2812935,8.14993193 Z" id="unibrow_natural_Kahlo" fill="#000000" transform="translate(80.500000, 12.500000) rotate(-2.000000) translate(-80.500000, -12.500000) " />
        <path d="M54.999475,12 C55.000175,11.9961 55.000175,11.9961 54.999475,12 M15.7187065,8.14993193 C22.2528918,5.39200867 30.9100555,8.32440654 37.5715863,9.38927986 C41.3111538,9.98718701 45.0720011,10.3803501 48.7590345,11.2908151 C50.2416282,11.6567696 51.6849876,12.3536477 53.1313394,12.4128263 C53.8325707,12.4413952 54.2674737,13.2763566 53.8149484,13.8242681 C52.3320222,15.6179895 48.3271239,16.7172136 46.2969114,17.0505179 C40.0513315,18.0766191 33.9846337,15.945512 27.8284949,15.0153209 C22.363945,14.1895424 16.1436347,13.4967455 11.1395899,16.507708 C11.0122444,16.584232 10.0024581,17.2147893 9.47545402,17.7511372 C9.0897602,18.1443003 8.43674067,18.0619945 8.17739482,17.5722412 C6.75830756,14.8939029 14.2756796,8.76008291 15.7187065,8.14993193 Z M54.9339874,11 C56.1050753,11 57.8521936,15.4015737 55.6223391,15.6527457 C53.3924847,15.9039176 53.7628995,11 54.9339874,11 Z" id="unibrow_natural_Frida" fill="#000000" transform="translate(32.348682, 12.500000) rotate(2.000000) translate(-32.348682, -12.500000) " />
    </g>
</g>
        </g>
        <g id="transparent_Top">
            
        <defs>
        <path d="M133,18 C170.555563,18 201.576875,45.9764505 206.360189,82.2256031 C206.623924,84.2242503 206.827836,91.3570149 206.971924,103.623897 C206.991377,103.728785 207,103.810849 207,103.874706 L207,158 L207,158 C207,175.673112 192.673112,190 175,190 L157,190 L157,180.610951 C174.530782,172.282984 187.048193,155.114792 188.791419,134.867187 C194.569129,134.002364 199,129.018625 199,123 L199,110 C199,108.48388 198.718835,106.513303 198.205802,104.402814 C180.318197,99.0191367 162.700008,82.6930439 152.444252,59.6582378 C152.171378,59.0453546 151.905522,58.431776 151.646653,57.8176545 L151.263,56.897 L151.042157,57.4762306 C146.40281,69.4134872 137.846143,78.0997511 125.372156,83.5350224 C130.244513,77.5880409 134.394107,70.6604321 137.820938,62.752196 C129.843979,71.2579416 119.473269,79.4910638 107.341516,86.4953343 C94.9709782,93.6374678 82.4094417,98.555016 70.8702973,101.173946 C68.4906508,103.366307 67,106.509074 67,110 L67,123 C67,129.018625 71.4308707,134.002364 77.2085808,134.867187 C78.9518066,155.114792 91.4692178,172.282984 109,180.610951 L109,190 L67,190 C62.581722,190 59,186.418278 59,182 L59.0005942,102.340338 C57.3242044,102.197712 55.7583108,101.883328 54.8534901,101.273154 C51.6949619,99.1431718 50,95.0507583 50,90.5 C50,83.5964406 54.4771525,78 60,78 C66.8627142,43.8282542 96.9151011,18 133,18 Z" id="long_not_too_long_path-1" />
    </defs>
    <g id="long_not_too_long_Top/Long-Hair/Long-but-not-too-long" stroke="none" stroke-width="1" fill="none" fill-rule="evenodd" transform="translate(-1 0)">
        <g id="long_not_too_long_Behind">
            <mask id="long_not_too_long_mask-2" fill="white">
                <use xlink:href="#long_not_too_long_path-1" />
            </mask>
            <use id="long_not_too_long_Combined-Shape" fill="#944F23" xlink:href="#long_not_too_long_path-1" />
            <g id="long_not_too_long_Hair-Color" mask="url(#long_not_too_long_mask-2)" fill="#C93305">
                <rect id="long_not_too_long_Color" x="0" y="0" width="266" height="280" />
            </g>
        </g>
        <g id="long_not_too_long_Top" opacity="0.439990942" transform="translate(50.000000, 18.000000)" fill="#FFFFFF" fill-opacity="0.159999996">
            <path d="M82.9999943,0 C123.869071,0 156.999994,33.1309285 156.999994,74 L156.999994,88.1510343 C136.296003,86.1944823 114.38223,68.4713761 102.444252,41.6582378 C102.034942,40.738913 101.64142,39.8180234 101.263585,38.8960843 C96.6778122,51.1324394 88.0473359,60.0120855 75.3721558,65.5350224 C80.2445133,59.5880409 84.3941075,52.6604321 87.8209384,44.752196 C79.8439791,53.2579416 69.4732686,61.4910638 57.3415164,68.4953343 C41.6782753,77.5385107 25.7088267,83.0152453 11.8962575,84.7752566 C11.2824677,84.9228515 10.6484415,85 10,85 C9.98234128,85 9.96469325,84.9999428 9.94705603,84.9998285 C9.63018145,85.0332323 9.31445508,85.0640043 8.99999434,85.0927525 L8.99948924,84.9382175 C3.94641137,84.3107663 0,78.9814667 0,72.5 C0,65.5964406 4.4771525,60 10,60 C10.1082052,60 10.216009,60.0021482 10.3233856,60.0064125 C16.8624267,25.8284974 46.9149305,0 82.9999943,0 Z" id="long_not_too_long_Combined-Shape" />
        </g>
        <g id="long_not_too_long_Facial-Hair" transform="translate(49.000000, 72.000000)"><defs>
        <path d="M64.7214121,63.4643353 C71.8381194,62.1698595 81.796173,63.6461901 84.1074639,67.092174 L83.998,66.939 L84.010445,66.9215199 C86.5309935,63.5977488 96.2765075,62.1914341 103.274279,63.4643353 C112.927938,65.2207224 117.019147,75.7669804 115.780485,77.6791014 C114.655476,79.4153191 111.53642,77.7739966 109.119711,77.6298353 C104.118941,77.3322546 94.948229,81.5102869 86.0463327,76.6891498 C85.2347477,76.2495714 84.5386341,75.6083797 83.9975585,74.8390687 C83.4573866,75.6083797 82.7612729,76.2495714 81.949688,76.6891498 C73.0477917,81.5102869 63.8767499,77.3322546 58.8763101,77.6298353 C56.459601,77.7739966 53.3405442,79.4153191 52.2155358,77.6791014 C50.9768736,75.7669804 55.0680827,65.2207224 64.7214121,63.4643353 Z" id="moustache_magnum_path-1" />
    </defs>
    <g id="moustache_magnum_Facial-Hair/Moustache-Magnum" stroke="none" stroke-width="1" fill="none" fill-rule="evenodd">
        <mask id="moustache_magnum_mask-2" fill="white">
            <use xlink:href="#moustache_magnum_path-1" />
        </mask>
        <use id="moustache_magnum_Hey..." fill="#28354B" xlink:href="#moustache_magnum_path-1" />
        <g id="moustache_magnum_Facial-Hair-Color" mask="url(#moustache_magnum_mask-2)" fill="#C93305">
            <rect id="moustache_magnum_Color" x="0" y="0" width="168" height="152" />
        </g>
    </g>
</g>
        <g id="long_not_too_long_Accessory" transform="translate(62.000000, 85.000000)" />
    </g>
</g>
    </g>
</svg>