<svg xmlns="http://www.w3.org/2000/svg" xmlns:xlink="http://www.w3.org/1999/xlink" width="264px" height="280px" viewBox="0 0 264 280" version="1.1">
    <title id="transparent_Title">Avataaar/Default</title>
    <desc>Created with python_avatars</desc>
    <defs>
        <path d="M100,0 C130.927946,-5.68137151e-15 156,25.072054 156,56 L156.000809,62.1660527 C161.675838,63.1185422 166,68.05429 166,74 L166,88 C166,94.0524166 161.519235,99.0582945 155.693975,99.8813638 C153.627928,119.686472 141.237929,136.421678 124.001014,144.610469 L124,163 L128,163 C167.764502,163 200,195.235498 200,235 L200,244 L0,244 L0,235 C-4.86974701e-15,195.235498 32.235498,163 72,163 L76,163 L75.9999836,144.610943 C58.7625487,136.422324 46.3721119,119.686854 44.3051107,99.8809698 C38.480765,99.0582945 34,94.0524166 34,88 L34,74 C34,68.053942 38.3246685,63.1179645 44.0001873,62.1658855 L44,56 C44,25.072054 69.072054,5.68137151e-15 100,0 Z" id="transparent_path-1" />
        <path d="M83,36.3476251 C83,52.6289957 105.161905,65.8276544 132.5,65.8276544 C159.838095,65.8276544 182,52.6289957 182,36.3476251 C182,34.9853134 181.844841,33.6445843 181.544472,32.3313638 C210.784239,41.4879251 232,68.792221 232,101.051724 L232,110 L32,110 L32,101.051724 C32,68.3970853 53.7386736,40.8197864 83.5337207,32.0021267 C83.1821692,33.4207025 83,34.871494 83,36.3476251 Z" id="transparent_path-3" />
        <rect id="transparent_path-5" x="0" y="0" width="264" height="280" />
        <path d="M74,0 C114.869071,0 148,33.1309285 148,74 L148,84.1482318 L148,197.608051 C135.525121,187.236892 119.490913,181 102,181 L102,181 L98,181 L98,162.610951 C115.530782,154.282984 128.048193,137.114792 129.791419,116.867187 C135.569129,116.002364 140,111.018625 140,105 L140,105 L140,92 C140,87.3536213 137.359271,83.3240177 133.496777,81.3301515 C132.723933,81.0500337 131.951808,80.748163 131.180891,80.4262497 C130.794819,80.3202581 130.400778,80.2331546 130,80.1659169 L130,80.1659169 L130.000458,79.9172528 C117.224481,74.2339715 104.877985,63.0706967 96.1104311,47.8848473 C93.1752556,42.8009742 90.8310687,37.5951441 89.0661426,32.3970356 C80.4313947,42.9409152 67.7445474,53.6023901 52.3415164,62.4953343 C42.777598,68.0170651 33.1467898,72.2910056 24,75.2659587 L24.0003852,137.246608 C29.6019576,148.318362 38.7728825,157.277529 50,162.610951 L50,162.610951 L50,181 L46,181 C38.3273639,181 30.9350359,182.200142 24.0004995,184.422941 L24,230 C24,244.105888 13.5691766,255.775526 0,257.716445 L0,74 C0,33.1309285 33.1309285,0 74,0 Z" id="transparent_path-7" />
    </defs>
    <g id="transparent_Avataaar/Default" stroke="none" stroke-width="1" fill="none" fill-rule="evenodd">
        <g id="transparent_Body" transform="translate(32.000000, 36.000000)">
            <mask id="transparent_mask-2" fill="white">
                <use xlink:href="#transparent_path-1" />
            </mask>
            <use fill="#D0C6AC" xlink:href="#transparent_path-1" />
            <g id="transparent_Skin-Color" mask="url(#transparent_mask-2)" fill="#614335">
                <g transform="translate(-32.000000, 0.000000)" id="transparent_Color">
                    <rect x="0" y="0" width="264" height="244" />
                </g>
            </g>
            <path d="M44,94 C44,124.927946 69.072054,150 100,150 C130.927946,150 156,124.927946 156,94 L156,94 L156,102 C156,132.927946 130.927946,158 100,158 C69.072054,158 44,132.927946 44,102 Z" id="transparent_Neck-Shadow" fill-opacity="0.100000001" fill="#000000" mask="url(#transparent_mask-2)" />
        </g>
        <g id="transparent_Clothing" transform="translate(0.000000, 170.000000)">
            
        <defs>
        <path d="M83,36.3476251 C83,52.6289957 105.161905,65.8276544 132.5,65.8276544 C159.838095,65.8276544 182,52.6289957 182,36.3476251 C182,34.9853134 181.844841,33.6445843 181.544472,32.3313638 C210.784239,41.4879251 232,68.792221 232,101.051724 L232,110 L32,110 L32,101.051724 C32,68.3970853 53.7386736,40.8197864 83.5337207,32.0021267 C83.1821692,33.4207025 83,34.871494 83,36.3476251 Z" id="shirt_scoop_neck_path-1" />
    </defs>
    <g id="shirt_scoop_neck_Clothing/Shirt-Scoop-Neck" stroke="none" stroke-width="1" fill="none" fill-rule="evenodd">
        <mask id="shirt_scoop_neck_mask-2" fill="white">
            <use xlink:href="#shirt_scoop_neck_path-1" />
        </mask>
        <use id="shirt_scoop_neck_Clothes" fill="#E6E6E6" xlink:href="#shirt_scoop_neck_path-1" />
        <g id="shirt_scoop_neck_Fabric-Color" mask="url(#shirt_scoop_neck_mask-2)" fill="#FF488E">
            <rect id="shirt_scoop_neck_ðŸ–Color" x="0" y="0" width="264" height="110" />
        </g>
    </g>
</g>
        <g id="transparent_Face" transform="translate(76.000000, 82.000000)" fill="#000000">
            <g id="transparent_Mouth" transform="translate(2.000000, 52.000000)">    
                
            <defs>
        <path d="M35.117844,15.1280772 C36.1757121,24.6198025 44.2259873,32 54,32 C63.8042055,32 71.8740075,24.574136 72.8917593,15.0400546 C72.9736685,14.272746 72.1167429,13 71.042767,13 C56.1487536,13 44.7379213,13 37.0868244,13 C36.0066168,13 35.0120058,14.1784435 35.117844,15.1280772 Z" id="smile_path-1" />
    </defs>
    <g id="smile_Mouth/Smile" stroke="none" stroke-width="1" fill="none" fill-rule="evenodd">
        <mask id="smile_mask-2" fill="white">
            <use xlink:href="#smile_path-1" />
        </mask>
        <use id="smile_Mouth" fill-opacity="0.699999988" fill="#000000" xlink:href="#smile_path-1" />
        <path d="M44,2 L65,2 C67.7614237,2 70,4.23857625 70,7 L70,13 C70,15.7614237 67.7614237,18 65,18 L44,18 C41.2385763,18 39,15.7614237 39,13 L39,7 C39,4.23857625 41.2385763,2 44,2 Z" id="smile_Teeth" fill="#FFFFFF" mask="url(#smile_mask-2)" />
        <g id="smile_Tongue" mask="url(#smile_mask-2)" fill="#FF4F6D">
            <g transform="translate(38.000000, 24.000000)">
                <circle cx="11" cy="11" r="11" />
                <circle cx="21" cy="11" r="11" />
            </g>
        </g>
    </g>
</g>
            <g id="transparent_Nose" transform="translate(28.000000, 40.000000)" fill-opacity="0.16">
                
            <g id="default_Nose/Default" stroke="none" stroke-width="1" fill="none" fill-rule="evenodd" fill-opacity="0.16">
        <path d="M16,8 C16,12.418278 21.372583,16 28,16 L28,16 C34.627417,16 40,12.418278 40,8" id="default_Nose" fill="#000000" />
    </g>
</g>
            <g id="transparent_Eyes" transform="translate(0.000000, 8.000000)">
                
            <g id="heart_Eyes/Hearts-ðŸ˜" stroke="none" stroke-width="1" fill="none" fill-rule="evenodd" fill-opacity="0.8">
        <path d="M35.9583333,10 C33.4074091,10 30.8837273,11.9797894 29.5,13.8206358 C28.1106364,11.9797894 25.5925909,10 23.0416667,10 C17.5523182,10 14,13.3341032 14,17.6412715 C14,23.3708668 18.4118636,26.771228 23.0416667,30.376724 C24.695,31.6133636 27.8223436,34.7777086 28.2083333,35.470905 C28.5943231,36.1641015 30.3143077,36.1885229 30.7916667,35.470905 C31.2690257,34.7532872 34.3021818,31.6133636 35.9583333,30.376724 C40.5853182,26.771228 45,23.3708668 45,17.6412715 C45,13.3341032 41.4476818,10 35.9583333,10 Z" id="heart_Heart" fill="#FF5353" fill-rule="nonzero" />
        <path d="M88.9583333,10 C86.4074091,10 83.8837273,11.9797894 82.5,13.8206358 C81.1106364,11.9797894 78.5925909,10 76.0416667,10 C70.5523182,10 67,13.3341032 67,17.6412715 C67,23.3708668 71.4118636,26.771228 76.0416667,30.376724 C77.695,31.6133636 80.8223436,34.7777086 81.2083333,35.470905 C81.5943231,36.1641015 83.3143077,36.1885229 83.7916667,35.470905 C84.2690257,34.7532872 87.3021818,31.6133636 88.9583333,30.376724 C93.5853182,26.771228 98,23.3708668 98,17.6412715 C98,13.3341032 94.4476818,10 88.9583333,10 Z" id="heart_Heart" fill="#FF5353" fill-rule="nonzero" />
    </g>
</g>
            <g id="transparent_Eyebrow" fill-opacity="0.599999964">
                
            <g id="sad_concerned_Eyebrow/Outline/Sad-Concerned" stroke="none" stroke-width="1" fill="none" fill-rule="evenodd" fill-opacity="0.599999964">
        <path d="M15.9726042,19.4088529 C17.452356,11.0203704 30.0622688,5.22829657 39.2106453,8.9774793 C40.2254706,9.39337449 41.4016967,8.94600219 41.8378196,7.97824531 C42.2739426,7.01048842 41.8048116,5.88881678 40.7899862,5.47292159 C29.3457328,0.782843812 13.9550264,7.85221132 12.0280273,18.7760684 C11.84479,19.8148122 12.5792704,20.798534 13.6685352,20.9732726 C14.7578,21.1480113 15.7893668,20.4475967 15.9726042,19.4088529 Z" id="sad_concerned_Eyebrow" fill="#000000" fill-rule="nonzero" transform="translate(27.000414, 12.500000) scale(-1, -1) translate(-27.000414, -12.500000) " />
        <path d="M73.9726042,19.4088529 C75.452356,11.0203704 88.0622688,5.22829657 97.2106453,8.9774793 C98.2254706,9.39337449 99.4016967,8.94600219 99.8378196,7.97824531 C100.273943,7.01048842 99.8048116,5.88881678 98.7899862,5.47292159 C87.3457328,0.782843812 71.9550264,7.85221132 70.0280273,18.7760684 C69.84479,19.8148122 70.5792704,20.798534 71.6685352,20.9732726 C72.7578,21.1480113 73.7893668,20.4475967 73.9726042,19.4088529 Z" id="sad_concerned_Eyebrow" fill="#000000" fill-rule="nonzero" transform="translate(85.000414, 12.500000) scale(1, -1) translate(-85.000414, -12.500000) " />
    </g>
</g>
        </g>
        <g id="transparent_Top">
            
        <defs>
        <path d="M93.0001685,1 C117.30504,1.44935656 137.861928,4.81215989 146.000169,15 C158.324059,30.4276364 186.085192,107.014914 186.000363,126 C185.884594,150.800081 172.952646,163.439362 163.000169,177 C152.721248,174.335052 135.145932,171.815843 117.000506,170.317477 L117.001014,161.610469 C135.730856,152.71243 148.737817,133.723415 148.996083,111.669239 L149,111 L149,73 C149,71.6549229 148.952578,70.3209219 148.859314,68.9995777 L72.058097,69 L69.2529753,47.5561285 L65.3735517,69 L37.140686,68.9995777 C37.0688668,70.0170994 37.0242316,71.0421267 37.0075024,72.0739376 L37,73 L37,111 C37,133.339161 50.0804138,152.623228 68.9999836,161.610943 L69.0005583,170.317398 C50.8548508,171.815755 33.2791001,174.335005 23,177 C13.047523,163.439362 0.115574613,150.800081 -0.000177961792,126 C-0.0850232975,107.014914 30.3189583,28.7950013 41,16 C48.9231015,6.50878211 68.6952966,0.550643437 93.0001685,1 Z" id="mia_wallace_path-1" />
    </defs>
    <g id="mia_wallace_Top/Long-Hair/Mia-Wallace" stroke="none" stroke-width="1" fill="none" fill-rule="evenodd">
        <path d="M69.0330562,76.212888 C81.9708809,43.1292208 95.6458945,26.5873873 110.058097,26.5873873 C110.596882,26.5873873 139.311316,26.3494141 158.112657,26.226792 C178.767149,35.5853581 193,55.3036503 193,78.114622 L193,93 L110.058097,93 L107.252975,69.820435 L103.373552,93 L69,93 L69,78.114622 C69,77.478246 69.0110772,76.844277 69.0330621,76.2128728 L69.0330562,76.212888 Z" id="mia_wallace_Shadow" fill-opacity="0.16" fill="#000000" />
        <g id="mia_wallace_Hair" transform="translate(39.000000, 19.000000)">
            <mask id="mia_wallace_mask-2" fill="white">
                <use xlink:href="#mia_wallace_path-1" />
            </mask>
            <use id="mia_wallace_Combined-Shape" fill="#E6E6E6" xlink:href="#mia_wallace_path-1" />
            <g id="mia_wallace_Hair-Color" mask="url(#mia_wallace_mask-2)" fill="#E8E1E1">
                <g transform="translate(-39.000000, -19.000000)" id="mia_wallace_Color">
                    <rect x="0" y="0" width="266" height="280" />
                </g>
            </g>
        </g>
        <g id="mia_wallace_Facial-Hair" transform="translate(49.000000, 72.000000)" />
        <g id="mia_wallace_Accessory" transform="translate(62.000000, 85.000000)"><defs>
        <path d="M83.4984286,93.8410391 C72.1241067,94.2191416 67.0502492,99.7213834 63.2291365,94.1296214 C60.3611827,89.9323547 61.5611932,82.8739117 64.2409566,78.9027173 C68.0539313,73.2512381 73.2266239,75.9847769 79.010342,75.3400279 C80.5830033,75.1648137 82.1627854,74.7228407 83.4984286,74 C84.8340717,74.7228407 86.4135147,75.1648137 87.986176,75.3400279 C93.7702332,75.9847769 98.9425868,73.2512381 102.755901,78.9027173 C105.435325,82.8739117 106.635335,89.9323547 103.767382,94.1296214 C99.9462689,99.7213834 94.8727504,93.4629366 83.4984286,93.8410391 Z M138.719768,26 C135.335967,40.0748212 133.781202,54.4337754 131.327683,68.6711471 C130.816435,71.6390145 130.256705,74.5963095 129.662396,77.5496398 C129.537635,78.1697764 129.414569,80.4725746 128.810767,80.7643064 C126.981731,81.6484223 123.254159,76.9466834 122.257428,75.8851496 C119.754073,73.219256 117.272077,70.5292442 114.223231,68.437233 C108.062822,64.2102603 100.85042,61.7108818 93.3454397,61.117837 C90.2053971,60.8693859 85.9594573,61.3025234 83.0001146,63.1104016 C80.0407719,61.3025234 75.7948321,60.8693859 72.6544504,61.117837 C65.1494705,61.7108818 57.9370685,64.2102603 51.7766588,68.437233 C48.7278137,70.5292442 46.2461561,73.219256 43.742462,75.8851496 C42.7457307,76.9466834 39.018159,81.6484223 37.1891231,80.7643064 C36.5853209,80.4725746 36.4622551,78.1697764 36.3374942,77.5496398 C35.7431847,74.5963095 35.1834557,71.6390145 34.6722071,68.6711471 C32.2190276,54.4337754 30.6642623,40.0748212 27.2804612,26 C26.2959348,26 25.432101,44.7478165 25.3222572,46.4945731 C24.8750842,53.5889755 24.3529868,60.5254529 25.0201865,67.6261326 C26.1704958,79.8749043 27.3696246,95.2339402 36.5917624,104.58753 C44.9246396,113.039493 57.0232778,114.806417 67.4585647,120.141327 C68.8021178,120.828202 70.5843683,121.676306 72.5062968,122.37111 C74.5309497,123.934171 78.546353,125 83.1719999,125 C88.024115,125 92.2046231,123.827456 94.1201102,122.137856 C95.8006534,121.49261 97.3452479,120.752874 98.5413255,120.141327 C108.975814,114.805245 121.075251,113.039493 129.408128,104.58753 C138.630266,95.2339402 139.829394,79.8749043 140.980043,67.6261326 C141.646903,60.5254529 141.124806,53.5889755 140.677972,46.4945731 C140.567789,44.7478165 139.703955,26 138.719768,26 Z" id="eyepatch_path-1" />
    </defs>
    <g id="eyepatch_Top/Accesories/Eyepatch" stroke="none" stroke-width="1" fill="none" fill-rule="evenodd" transform="translate(-62 -85)">
        <path d="M160.395307,39.7810237 C157.318088,36.6927979 154.11865,43.6386608 152.623361,45.4281124 C149.013122,49.7486528 145.540256,54.182935 141.868413,58.4518947 C134.616309,66.8823544 127.439316,75.3743141 120.233991,83.8401528 C119.140279,85.1257012 119.27271,85.2649028 117.837048,85.3885641 C116.88598,85.4708947 115.563312,84.9802173 114.5737,84.9256608 C111.823607,84.774556 109.112057,85.2348141 106.435756,85.8227012 C101.091389,86.9961608 95.4264863,88.9291124 90.7890799,91.898306 C89.5718308,92.677306 88.7874545,93.5971608 87.4670933,93.841177 C86.3183659,94.0534512 84.794416,93.6295641 83.622299,93.5194592 C81.5412806,93.3237173 78.5378542,92.4726366 76.4953793,92.9137173 C73.9027538,93.4738302 72.9174244,96.6109915 75.5604528,98.0003624 C77.570314,99.0564431 81.5706,98.4761608 83.8235816,98.6447899 C86.3971,98.8372253 85.6120649,98.704306 85.2473843,101.164306 C84.7239177,104.69758 85.5985582,108.646475 87.0885766,111.878201 C90.5482655,119.383185 100.122861,127.335201 108.8551,126.603153 C116.142123,125.992451 122.526834,119.413274 125.519389,113.099935 C127.050916,109.868871 127.954546,106.192096 128.250376,102.628403 C128.438811,100.36183 128.333722,97.9580399 127.684083,95.7632173 C127.362888,94.6783705 126.853916,93.5554995 126.308378,92.5695157 C125.866281,91.7710076 123.908799,89.9203866 123.788886,89.1165882 C123.556307,87.5602415 127.973324,83.3874995 128.816339,82.3443141 C132.788953,77.4276205 136.780344,72.5320882 140.721662,67.5889431 C144.603353,62.7201931 148.506456,57.8640076 152.489612,53.0785802 C154.294237,50.9098786 163.318023,42.7148382 160.395307,39.7810237" id="eyepatch_Badass-Eyepatch" fill="#28354B" />
    </g>
</g>
    </g>
</g>
    </g>
</svg>