<?xml version="1.0" standalone="no"?><?xml-stylesheet type="text/css" href="https://www.processon.com/themes/default/mind/icons/icons.css" ?><!DOCTYPE svg PUBLIC "-//W3C//DTD SVG 1.1//EN" "http://www.w3.org/Graphics/SVG/1.1/DTD/svg11.dtd"><svg id="SvgjsSvg1777" xmlns="http://www.w3.org/2000/svg" version="1.1" xmlns:xlink="http://www.w3.org/1999/xlink" xmlns:svgjs="http://svgjs.com/svgjs" width="879" height="649"><defs id="SvgjsDefs1778"><linearGradient id="SvgjsLinearGradient1784" x1="1" y1="0" x2="0" y2="1"><stop id="SvgjsStop1785" stop-opacity="0.75" stop-color="#66b2ff" offset="0"></stop><stop id="SvgjsStop1786" stop-opacity="0.75" stop-color="#ffcc99" offset="1"></stop></linearGradient><linearGradient id="SvgjsLinearGradient1793" x1="1" y1="0" x2="0" y2="1"><stop id="SvgjsStop1794" stop-opacity="0.75" stop-color="#66b2ff" offset="0"></stop><stop id="SvgjsStop1795" stop-opacity="0.75" stop-color="#ffcc99" offset="1"></stop></linearGradient><linearGradient id="SvgjsLinearGradient1802" x1="1" y1="0" x2="0" y2="1"><stop id="SvgjsStop1803" stop-opacity="0.75" stop-color="#66b2ff" offset="0"></stop><stop id="SvgjsStop1804" stop-opacity="0.75" stop-color="#ffcc99" offset="1"></stop></linearGradient><linearGradient id="SvgjsLinearGradient1813" x1="1" y1="0" x2="0" y2="1"><stop id="SvgjsStop1814" stop-opacity="0.75" stop-color="#66b2ff" offset="0"></stop><stop id="SvgjsStop1815" stop-opacity="0.75" stop-color="#ffcc99" offset="1"></stop></linearGradient><linearGradient id="SvgjsLinearGradient1822" x1="1" y1="0" x2="0" y2="1"><stop id="SvgjsStop1823" stop-opacity="0.75" stop-color="#66b2ff" offset="0"></stop><stop id="SvgjsStop1824" stop-opacity="0.75" stop-color="#ffcc99" offset="1"></stop></linearGradient><linearGradient id="SvgjsLinearGradient1831" x1="1" y1="0" x2="0" y2="1"><stop id="SvgjsStop1832" stop-opacity="0.75" stop-color="#66b2ff" offset="0"></stop><stop id="SvgjsStop1833" stop-opacity="0.75" stop-color="#ffcc99" offset="1"></stop></linearGradient><linearGradient id="SvgjsLinearGradient1840" x1="1" y1="0" x2="0" y2="1"><stop id="SvgjsStop1841" stop-opacity="0.75" stop-color="#00ffff" offset="0"></stop><stop id="SvgjsStop1842" stop-opacity="0.75" stop-color="#ccccff" offset="1"></stop></linearGradient><linearGradient id="SvgjsLinearGradient1851" x1="1" y1="0" x2="0" y2="1"><stop id="SvgjsStop1852" stop-opacity="0.75" stop-color="#00ffff" offset="0"></stop><stop id="SvgjsStop1853" stop-opacity="0.75" stop-color="#ccccff" offset="1"></stop></linearGradient><linearGradient id="SvgjsLinearGradient1862" x1="1" y1="0" x2="0" y2="1"><stop id="SvgjsStop1863" stop-opacity="0.75" stop-color="#00ffff" offset="0"></stop><stop id="SvgjsStop1864" stop-opacity="0.75" stop-color="#ccccff" offset="1"></stop></linearGradient><linearGradient id="SvgjsLinearGradient1871" x1="1" y1="0" x2="0" y2="1"><stop id="SvgjsStop1872" stop-opacity="0.75" stop-color="#00ffff" offset="0"></stop><stop id="SvgjsStop1873" stop-opacity="0.75" stop-color="#ccccff" offset="1"></stop></linearGradient><linearGradient id="SvgjsLinearGradient1880" x1="1" y1="0" x2="0" y2="1"><stop id="SvgjsStop1881" stop-opacity="0.75" stop-color="#00ffff" offset="0"></stop><stop id="SvgjsStop1882" stop-opacity="0.75" stop-color="#ccccff" offset="1"></stop></linearGradient><linearGradient id="SvgjsLinearGradient1889" x1="1" y1="0" x2="0" y2="1"><stop id="SvgjsStop1890" stop-opacity="0.75" stop-color="#00ffff" offset="0"></stop><stop id="SvgjsStop1891" stop-opacity="0.75" stop-color="#ccccff" offset="1"></stop></linearGradient><linearGradient id="SvgjsLinearGradient1900" x1="1" y1="0" x2="0" y2="1"><stop id="SvgjsStop1901" stop-opacity="0.75" stop-color="#66ffff" offset="0"></stop><stop id="SvgjsStop1902" stop-opacity="0.75" stop-color="#b266ff" offset="1"></stop></linearGradient><linearGradient id="SvgjsLinearGradient1909" x1="1" y1="0" x2="0" y2="1"><stop id="SvgjsStop1910" stop-opacity="0.75" stop-color="#66ffff" offset="0"></stop><stop id="SvgjsStop1911" stop-opacity="0.75" stop-color="#b266ff" offset="1"></stop></linearGradient><linearGradient id="SvgjsLinearGradient1920" x1="1" y1="0" x2="0" y2="1"><stop id="SvgjsStop1921" stop-opacity="0.75" stop-color="#66ffff" offset="0"></stop><stop id="SvgjsStop1922" stop-opacity="0.75" stop-color="#b266ff" offset="1"></stop></linearGradient><linearGradient id="SvgjsLinearGradient1931" x1="1" y1="0" x2="0" y2="1"><stop id="SvgjsStop1932" stop-opacity="0.75" stop-color="#66ffff" offset="0"></stop><stop id="SvgjsStop1933" stop-opacity="0.75" stop-color="#b266ff" offset="1"></stop></linearGradient><linearGradient id="SvgjsLinearGradient1940" x1="1" y1="0" x2="0" y2="1"><stop id="SvgjsStop1941" stop-opacity="0.75" stop-color="#66ffff" offset="0"></stop><stop id="SvgjsStop1942" stop-opacity="0.75" stop-color="#b266ff" offset="1"></stop></linearGradient><linearGradient id="SvgjsLinearGradient1949" x1="1" y1="0" x2="0" y2="1"><stop id="SvgjsStop1950" stop-opacity="0.75" stop-color="#66ffff" offset="0"></stop><stop id="SvgjsStop1951" stop-opacity="0.75" stop-color="#b266ff" offset="1"></stop></linearGradient><linearGradient id="SvgjsLinearGradient1960" x1="1" y1="0" x2="0" y2="1"><stop id="SvgjsStop1961" stop-opacity="0.75" stop-color="#66ffff" offset="0"></stop><stop id="SvgjsStop1962" stop-opacity="0.75" stop-color="#b266ff" offset="1"></stop></linearGradient><linearGradient id="SvgjsLinearGradient1969" x1="1" y1="0" x2="0" y2="1"><stop id="SvgjsStop1970" stop-opacity="0.75" stop-color="#66ffff" offset="0"></stop><stop id="SvgjsStop1971" stop-opacity="0.75" stop-color="#b266ff" offset="1"></stop></linearGradient><linearGradient id="SvgjsLinearGradient1980" x1="1" y1="0" x2="0" y2="1"><stop id="SvgjsStop1981" stop-opacity="0.75" stop-color="#66ffff" offset="0"></stop><stop id="SvgjsStop1982" stop-opacity="0.75" stop-color="#b266ff" offset="1"></stop></linearGradient><linearGradient id="SvgjsLinearGradient1994" x1="1" y1="0" x2="0" y2="1"><stop id="SvgjsStop1995" stop-opacity="0.75" stop-color="#66ffff" offset="0"></stop><stop id="SvgjsStop1996" stop-opacity="0.75" stop-color="#b266ff" offset="1"></stop></linearGradient><pattern patternUnits="userSpaceOnUse" id="pattern_mark" width="300" height="300"><text x="-50" y="150" fill="rgba(0,0,0,0.8)" font-size="18" transform="rotate(-45, 150, 150)"></text></pattern></defs><rect fill="url(#pattern_mark)" transform="translate(8,-188.5)" width="1500" height="1050" id="rect_mark" pointer-events="none"></rect><g id="SvgjsG1782" transform="translate(31,25)"><path id="SvgjsPath1783" d="M0 4Q0 0 4 0L96 0Q100 0 100 4L100 65Q100 69 96 69L4 69Q0 69 0 65Z " stroke="none" fill="url(#SvgjsLinearGradient1784)"></path><g id="SvgjsG1787"><text id="SvgjsText1788" font-family="微软雅黑" text-anchor="middle" font-size="14px" width="80px" fill="#ffffff" font-weight="400" align="middle" lineHeight="125%" font-style="" opacity="0.75" y="24.25" transform="rotate(0)"><tspan id="SvgjsTspan1789" dy="17" x="50"><tspan id="SvgjsTspan1790" style="text-decoration:;">Wiki</tspan></tspan></text></g></g><g id="SvgjsG1791" transform="translate(180,25)"><path id="SvgjsPath1792" d="M0 4Q0 0 4 0L96 0Q100 0 100 4L100 65Q100 69 96 69L4 69Q0 69 0 65Z " stroke="none" fill="url(#SvgjsLinearGradient1793)"></path><g id="SvgjsG1796"><text id="SvgjsText1797" font-family="微软雅黑" text-anchor="middle" font-size="14px" width="80px" fill="#ffffff" font-weight="400" align="middle" lineHeight="125%" font-style="" opacity="0.75" y="24.25" transform="rotate(0)"><tspan id="SvgjsTspan1798" dy="17" x="50"><tspan id="SvgjsTspan1799" style="text-decoration:;">Git</tspan></tspan></text></g></g><g id="SvgjsG1800" transform="translate(754,25)"><path id="SvgjsPath1801" d="M0 4Q0 0 4 0L96 0Q100 0 100 4L100 65Q100 69 96 69L4 69Q0 69 0 65Z " stroke="none" fill="url(#SvgjsLinearGradient1802)"></path><g id="SvgjsG1805"><text id="SvgjsText1806" font-family="微软雅黑" text-anchor="middle" font-size="14px" width="80px" fill="#ffffff" font-weight="400" align="middle" lineHeight="125%" font-style="" opacity="0.75" y="15.75" transform="rotate(0)"><tspan id="SvgjsTspan1807" dy="17" x="50"><tspan id="SvgjsTspan1808" style="text-decoration:;">Cloud </tspan></tspan><tspan id="SvgjsTspan1809" dy="17" x="50"><tspan id="SvgjsTspan1810" style="text-decoration:;">technology</tspan></tspan></text></g></g><g id="SvgjsG1811" transform="translate(611,25)"><path id="SvgjsPath1812" d="M0 4Q0 0 4 0L96 0Q100 0 100 4L100 65Q100 69 96 69L4 69Q0 69 0 65Z " stroke="none" fill="url(#SvgjsLinearGradient1813)"></path><g id="SvgjsG1816"><text id="SvgjsText1817" font-family="微软雅黑" text-anchor="middle" font-size="14px" width="80px" fill="#ffffff" font-weight="400" align="middle" lineHeight="125%" font-style="" opacity="0.75" y="24.25" transform="rotate(0)"><tspan id="SvgjsTspan1818" dy="17" x="50"><tspan id="SvgjsTspan1819" style="text-decoration:;">CG</tspan></tspan></text></g></g><g id="SvgjsG1820" transform="translate(478,25)"><path id="SvgjsPath1821" d="M0 4Q0 0 4 0L96 0Q100 0 100 4L100 65Q100 69 96 69L4 69Q0 69 0 65Z " stroke="none" fill="url(#SvgjsLinearGradient1822)"></path><g id="SvgjsG1825"><text id="SvgjsText1826" font-family="微软雅黑" text-anchor="middle" font-size="14px" width="80px" fill="#ffffff" font-weight="400" align="middle" lineHeight="125%" font-style="" opacity="0.75" y="24.25" transform="rotate(0)"><tspan id="SvgjsTspan1827" dy="17" x="50"><tspan id="SvgjsTspan1828" style="text-decoration:;">Ai</tspan></tspan></text></g></g><g id="SvgjsG1829" transform="translate(323,25)"><path id="SvgjsPath1830" d="M0 4Q0 0 4 0L96 0Q100 0 100 4L100 65Q100 69 96 69L4 69Q0 69 0 65Z " stroke="none" fill="url(#SvgjsLinearGradient1831)"></path><g id="SvgjsG1834"><text id="SvgjsText1835" font-family="微软雅黑" text-anchor="middle" font-size="14px" width="80px" fill="#ffffff" font-weight="400" align="middle" lineHeight="125%" font-style="" opacity="0.75" y="24.25" transform="rotate(0)"><tspan id="SvgjsTspan1836" dy="17" x="50"><tspan id="SvgjsTspan1837" style="text-decoration:;">NFT</tspan></tspan></text></g></g><g id="SvgjsG1838" transform="translate(31,136.5)"><path id="SvgjsPath1839" d="M14.52 56C-12.100000000000001 40 4.84 28 10.889999999999999 24C8.47 4 38.72 0 50.82 8C60.5 -4 90.75 0 90.75 12C114.94999999999999 8 124.63000000000001 24 114.94999999999999 44C123.42 60 114.94999999999999 80 87.11999999999999 72C81.07000000000001 82.4 56.87 82.4 50.82 72C38.72 80 14.52 76 14.52 56Z " stroke="none" fill="url(#SvgjsLinearGradient1840)"></path><g id="SvgjsG1843"><text id="SvgjsText1844" font-family="微软雅黑" text-anchor="middle" font-size="14px" width="101px" fill="#ffffff" font-weight="400" align="middle" lineHeight="125%" font-style="" opacity="0.75" y="21.25" transform="rotate(0)"><tspan id="SvgjsTspan1845" dy="17" x="60.5"><tspan id="SvgjsTspan1846" style="text-decoration:;">Knowledge </tspan></tspan><tspan id="SvgjsTspan1847" dy="17" x="60.5"><tspan id="SvgjsTspan1848" style="text-decoration:;">writing</tspan></tspan></text></g></g><g id="SvgjsG1849" transform="translate(731,146.5)"><path id="SvgjsPath1850" d="M14.52 56C-12.100000000000001 40 4.84 28 10.889999999999999 24C8.47 4 38.72 0 50.82 8C60.5 -4 90.75 0 90.75 12C114.94999999999999 8 124.63000000000001 24 114.94999999999999 44C123.42 60 114.94999999999999 80 87.11999999999999 72C81.07000000000001 82.4 56.87 82.4 50.82 72C38.72 80 14.52 76 14.52 56Z " stroke="none" fill="url(#SvgjsLinearGradient1851)"></path><g id="SvgjsG1854"><text id="SvgjsText1855" font-family="微软雅黑" text-anchor="middle" font-size="14px" width="101px" fill="#ffffff" font-weight="400" align="middle" lineHeight="125%" font-style="" opacity="0.75" y="21.25" transform="rotate(0)"><tspan id="SvgjsTspan1856" dy="17" x="60.5"><tspan id="SvgjsTspan1857" style="text-decoration:;">Cloud </tspan></tspan><tspan id="SvgjsTspan1858" dy="17" x="60.5"><tspan id="SvgjsTspan1859" style="text-decoration:;">computing</tspan></tspan></text></g></g><g id="SvgjsG1860" transform="translate(591,146.5)"><path id="SvgjsPath1861" d="M14.52 56C-12.100000000000001 40 4.84 28 10.889999999999999 24C8.47 4 38.72 0 50.82 8C60.5 -4 90.75 0 90.75 12C114.94999999999999 8 124.63000000000001 24 114.94999999999999 44C123.42 60 114.94999999999999 80 87.11999999999999 72C81.07000000000001 82.4 56.87 82.4 50.82 72C38.72 80 14.52 76 14.52 56Z " stroke="none" fill="url(#SvgjsLinearGradient1862)"></path><g id="SvgjsG1865"><text id="SvgjsText1866" font-family="微软雅黑" text-anchor="middle" font-size="14px" width="101px" fill="#ffffff" font-weight="400" align="middle" lineHeight="125%" font-style="" opacity="0.75" y="29.75" transform="rotate(0)"><tspan id="SvgjsTspan1867" dy="17" x="60.5"><tspan id="SvgjsTspan1868" style="text-decoration:;">Digital art</tspan></tspan></text></g></g><g id="SvgjsG1869" transform="translate(451,136.5)"><path id="SvgjsPath1870" d="M14.52 56C-12.100000000000001 40 4.84 28 10.889999999999999 24C8.47 4 38.72 0 50.82 8C60.5 -4 90.75 0 90.75 12C114.94999999999999 8 124.63000000000001 24 114.94999999999999 44C123.42 60 114.94999999999999 80 87.11999999999999 72C81.07000000000001 82.4 56.87 82.4 50.82 72C38.72 80 14.52 76 14.52 56Z " stroke="none" fill="url(#SvgjsLinearGradient1871)"></path><g id="SvgjsG1874"><text id="SvgjsText1875" font-family="微软雅黑" text-anchor="middle" font-size="14px" width="101px" fill="#ffffff" font-weight="400" align="middle" lineHeight="125%" font-style="" opacity="0.75" y="29.75" transform="rotate(0)"><tspan id="SvgjsTspan1876" dy="17" x="60.5"><tspan id="SvgjsTspan1877" style="text-decoration:;">Data analysis</tspan></tspan></text></g></g><g id="SvgjsG1878" transform="translate(312.5,136.5)"><path id="SvgjsPath1879" d="M14.52 56C-12.100000000000001 40 4.84 28 10.889999999999999 24C8.47 4 38.72 0 50.82 8C60.5 -4 90.75 0 90.75 12C114.94999999999999 8 124.63000000000001 24 114.94999999999999 44C123.42 60 114.94999999999999 80 87.11999999999999 72C81.07000000000001 82.4 56.87 82.4 50.82 72C38.72 80 14.52 76 14.52 56Z " stroke="none" fill="url(#SvgjsLinearGradient1880)"></path><g id="SvgjsG1883"><text id="SvgjsText1884" font-family="微软雅黑" text-anchor="middle" font-size="14px" width="101px" fill="#ffffff" font-weight="400" align="middle" lineHeight="125%" font-style="" opacity="0.75" y="29.75" transform="rotate(0)"><tspan id="SvgjsTspan1885" dy="17" x="60.5"><tspan id="SvgjsTspan1886" style="text-decoration:;">Casting</tspan></tspan></text></g></g><g id="SvgjsG1887" transform="translate(169.5,136.5)"><path id="SvgjsPath1888" d="M14.52 56C-12.100000000000001 40 4.84 28 10.889999999999999 24C8.47 4 38.72 0 50.82 8C60.5 -4 90.75 0 90.75 12C114.94999999999999 8 124.63000000000001 24 114.94999999999999 44C123.42 60 114.94999999999999 80 87.11999999999999 72C81.07000000000001 82.4 56.87 82.4 50.82 72C38.72 80 14.52 76 14.52 56Z " stroke="none" fill="url(#SvgjsLinearGradient1889)"></path><g id="SvgjsG1892"><text id="SvgjsText1893" font-family="微软雅黑" text-anchor="middle" font-size="14px" width="101px" fill="#ffffff" font-weight="400" align="middle" lineHeight="125%" font-style="" opacity="0.75" y="21.25" transform="rotate(0)"><tspan id="SvgjsTspan1894" dy="17" x="60.5"><tspan id="SvgjsTspan1895" style="text-decoration:;">Version </tspan></tspan><tspan id="SvgjsTspan1896" dy="17" x="60.5"><tspan id="SvgjsTspan1897" style="text-decoration:;">control</tspan></tspan></text></g></g><g id="SvgjsG1898" transform="translate(25,402)"><path id="SvgjsPath1899" d="M0 4Q0 0 4 0L196 0Q200 0 200 4L200 65Q200 69 196 69L4 69Q0 69 0 65Z " stroke="none" fill="url(#SvgjsLinearGradient1900)"></path><g id="SvgjsG1903"><text id="SvgjsText1904" font-family="微软雅黑" text-anchor="middle" font-size="14px" width="180px" fill="#ffffff" font-weight="400" align="middle" lineHeight="125%" font-style="" opacity="0.75" y="24.25" transform="rotate(0)"><tspan id="SvgjsTspan1905" dy="17" x="100"><tspan id="SvgjsTspan1906" style="text-decoration:;">Have a unique gene</tspan></tspan></text></g></g><g id="SvgjsG1907" transform="translate(25,555)"><path id="SvgjsPath1908" d="M0 4Q0 0 4 0L196 0Q200 0 200 4L200 65Q200 69 196 69L4 69Q0 69 0 65Z " stroke="none" fill="url(#SvgjsLinearGradient1909)"></path><g id="SvgjsG1912"><text id="SvgjsText1913" font-family="微软雅黑" text-anchor="middle" font-size="14px" width="180px" fill="#ffffff" font-weight="400" align="middle" lineHeight="125%" font-style="" opacity="0.75" y="15.75" transform="rotate(0)"><tspan id="SvgjsTspan1914" dy="17" x="100"><tspan id="SvgjsTspan1915" style="text-decoration:;">Can continue to evolve, </tspan></tspan><tspan id="SvgjsTspan1916" dy="17" x="100"><tspan id="SvgjsTspan1917" style="text-decoration:;">fission</tspan></tspan></text></g></g><g id="SvgjsG1918" transform="translate(652,402)"><path id="SvgjsPath1919" d="M0 4Q0 0 4 0L196 0Q200 0 200 4L200 65Q200 69 196 69L4 69Q0 69 0 65Z " stroke="none" fill="url(#SvgjsLinearGradient1920)"></path><g id="SvgjsG1923"><text id="SvgjsText1924" font-family="微软雅黑" text-anchor="middle" font-size="14px" width="180px" fill="#ffffff" font-weight="400" align="middle" lineHeight="125%" font-style="" opacity="0.75" y="15.75" transform="rotate(0)"><tspan id="SvgjsTspan1925" dy="17" x="100"><tspan id="SvgjsTspan1926" style="text-decoration:;">Rights and interests are </tspan></tspan><tspan id="SvgjsTspan1927" dy="17" x="100"><tspan id="SvgjsTspan1928" style="text-decoration:;">accurate and transparent</tspan></tspan></text></g></g><g id="SvgjsG1929" transform="translate(652,555)"><path id="SvgjsPath1930" d="M0 4Q0 0 4 0L196 0Q200 0 200 4L200 65Q200 69 196 69L4 69Q0 69 0 65Z " stroke="none" fill="url(#SvgjsLinearGradient1931)"></path><g id="SvgjsG1934"><text id="SvgjsText1935" font-family="微软雅黑" text-anchor="middle" font-size="14px" width="180px" fill="#ffffff" font-weight="400" align="middle" lineHeight="125%" font-style="" opacity="0.75" y="24.25" transform="rotate(0)"><tspan id="SvgjsTspan1936" dy="17" x="100"><tspan id="SvgjsTspan1937" style="text-decoration:;">High applicability</tspan></tspan></text></g></g><g id="SvgjsG1938" transform="translate(370.9999999999999,420.8675461777158)"><path id="SvgjsPath1939" d="M0 67.63245382228422C0 -22.54415127409474 136 -22.54415127409474 136 67.63245382228422C136 157.80905891866317 0 157.80905891866317 0 67.63245382228422Z " stroke="rgba(255,255,255,0.75)" stroke-width="2" fill="url(#SvgjsLinearGradient1940)"></path><g id="SvgjsG1943"><text id="SvgjsText1944" font-family="微软雅黑" text-anchor="middle" font-size="14px" width="116px" fill="#ffffff" font-weight="700" align="middle" lineHeight="125%" font-style="" opacity="0.75" y="48.88245382228422" transform="rotate(0)"><tspan id="SvgjsTspan1945" dy="17" x="68"><tspan id="SvgjsTspan1946" style="text-decoration:;">SFC'sWork</tspan></tspan></text></g></g><g id="SvgjsG1947" transform="translate(291.06799765036897,402)"><path id="SvgjsPath1948" d="M0 34.5C0 -11.5 70 -11.5 70 34.5C70 80.5 0 80.5 0 34.5Z " stroke="none" fill="url(#SvgjsLinearGradient1949)"></path><g id="SvgjsG1952"><text id="SvgjsText1953" font-family="微软雅黑" text-anchor="middle" font-size="14px" width="50px" fill="#ffffff" font-weight="400" align="middle" lineHeight="125%" font-style="" opacity="0.75" y="15.75" transform="rotate(0)"><tspan id="SvgjsTspan1954" dy="17" x="35"><tspan id="SvgjsTspan1955" style="text-decoration:;">Conten</tspan></tspan><tspan id="SvgjsTspan1956" dy="17" x="35"><tspan id="SvgjsTspan1957" style="text-decoration:;">t</tspan></tspan></text></g></g><g id="SvgjsG1958" transform="translate(325.9999999999999,555)"><path id="SvgjsPath1959" d="M0 34.5C0 -11.5 70 -11.5 70 34.5C70 80.5 0 80.5 0 34.5Z " stroke="none" fill="url(#SvgjsLinearGradient1960)"></path><g id="SvgjsG1963"><text id="SvgjsText1964" font-family="微软雅黑" text-anchor="middle" font-size="14px" width="50px" fill="#ffffff" font-weight="400" align="middle" lineHeight="125%" font-style="" opacity="0.75" y="24.25" transform="rotate(0)"><tspan id="SvgjsTspan1965" dy="17" x="35"><tspan id="SvgjsTspan1966" style="text-decoration:;">History</tspan></tspan></text></g></g><g id="SvgjsG1967" transform="translate(410.3202280165034,321)"><path id="SvgjsPath1968" d="M0 34.5C0 -11.5 70 -11.5 70 34.5C70 80.5 0 80.5 0 34.5Z " stroke="none" fill="url(#SvgjsLinearGradient1969)"></path><g id="SvgjsG1972"><text id="SvgjsText1973" font-family="微软雅黑" text-anchor="middle" font-size="14px" width="50px" fill="#ffffff" font-weight="400" align="middle" lineHeight="125%" font-style="" opacity="0.75" y="15.75" transform="rotate(0)"><tspan id="SvgjsTspan1974" dy="17" x="35"><tspan id="SvgjsTspan1975" style="text-decoration:;">Author </tspan></tspan><tspan id="SvgjsTspan1976" dy="17" x="35"><tspan id="SvgjsTspan1977" style="text-decoration:;">list</tspan></tspan></text></g></g><g id="SvgjsG1978" transform="translate(501,555)"><path id="SvgjsPath1979" d="M0 34.5C0 -11.5 70 -11.5 70 34.5C70 80.5 0 80.5 0 34.5Z " stroke="none" fill="url(#SvgjsLinearGradient1980)"></path><g id="SvgjsG1983"><text id="SvgjsText1984" font-family="微软雅黑" text-anchor="middle" font-size="14px" width="50px" fill="#ffffff" font-weight="400" align="middle" lineHeight="125%" font-style="" opacity="0.75" y="24.25" transform="rotate(0)"><tspan id="SvgjsTspan1985" dy="17" x="35"><tspan id="SvgjsTspan1986" style="text-decoration:;">Salt</tspan></tspan></text></g></g><g id="SvgjsG1987" transform="matrix(6.123233995736766e-17,1,-1,6.123233995736766e-17,837.9999999999999,255.50000000000009)"><path id="SvgjsPath1988" d="M0 799Q4.79999999999998 799 4.79999999999998 790L4.79999999999998 408.5Q4.79999999999998 399.5 22 399.5Q4.79999999999998 399.5 4.79999999999998 390.5L4.79999999999998 9Q4.79999999999998 0 0 0 " stroke="rgba(255,255,255,0.75)" stroke-width="2" fill="none"></path><path id="SvgjsPath1989" d="M0 0L47.9999999999998 0L47.9999999999998 799L0 799Z " stroke="none" fill="none"></path><g id="SvgjsG1990"><text id="SvgjsText1991" font-family="微软雅黑" text-anchor="start" font-size="13px" width="21px" fill="#cdcdcd" font-weight="400" align="middle" lineHeight="125%" font-style="" opacity="0.75" y="389.875" transform="rotate(0)"></text></g></g><g id="SvgjsG1992" transform="translate(515.037209448574,402)"><path id="SvgjsPath1993" d="M0 34.5C0 -11.5 70 -11.5 70 34.5C70 80.5 0 80.5 0 34.5Z " stroke="none" fill="url(#SvgjsLinearGradient1994)"></path><g id="SvgjsG1997"><text id="SvgjsText1998" font-family="微软雅黑" text-anchor="middle" font-size="14px" width="50px" fill="#ffffff" font-weight="400" align="middle" lineHeight="125%" font-style="" opacity="0.75" y="15.75" transform="rotate(0)"><tspan id="SvgjsTspan1999" dy="17" x="35"><tspan id="SvgjsTspan2000" style="text-decoration:;">Correla</tspan></tspan><tspan id="SvgjsTspan2001" dy="17" x="35"><tspan id="SvgjsTspan2002" style="text-decoration:;">tion</tspan></tspan></text></g></g></svg>