<?xml version="1.0" standalone="no"?><?xml-stylesheet type="text/css" href="https://www.processon.com/themes/default/mind/icons/icons.css" ?><!DOCTYPE svg PUBLIC "-//W3C//DTD SVG 1.1//EN" "http://www.w3.org/Graphics/SVG/1.1/DTD/svg11.dtd"><svg id="SvgjsSvg2093" xmlns="http://www.w3.org/2000/svg" version="1.1" xmlns:xlink="http://www.w3.org/1999/xlink" xmlns:svgjs="http://svgjs.com/svgjs" width="955.4375" height="580.21875"><defs id="SvgjsDefs2094"><radialGradient id="SvgjsRadialGradient2180" r="0.45"><stop id="SvgjsStop2181" stop-opacity="1" stop-color="#33ffff" offset="0"></stop><stop id="SvgjsStop2182" stop-opacity="1" stop-color="#00cccc" offset="1"></stop></radialGradient><radialGradient id="SvgjsRadialGradient2191" r="0.45"><stop id="SvgjsStop2192" stop-opacity="1" stop-color="#33ffff" offset="0"></stop><stop id="SvgjsStop2193" stop-opacity="1" stop-color="#00cccc" offset="1"></stop></radialGradient><radialGradient id="SvgjsRadialGradient2202" r="0.45"><stop id="SvgjsStop2203" stop-opacity="1" stop-color="#33ffff" offset="0"></stop><stop id="SvgjsStop2204" stop-opacity="1" stop-color="#00cccc" offset="1"></stop></radialGradient><pattern patternUnits="userSpaceOnUse" id="pattern_mark" width="300" height="300"><text x="-50" y="150" fill="rgba(0,0,0,0.8)" font-size="18" transform="rotate(-45, 150, 150)"></text></pattern></defs><rect fill="url(#pattern_mark)" transform="translate(-90.15625,-224)" width="1050" height="1500" id="rect_mark" pointer-events="none"></rect><g id="SvgjsG2098" transform="translate(337.139541849125,193.25776865682042)"><path id="SvgjsPath2099" d="M0 139.7833704745217C0 -46.59445682484056 279.24124418915983 -46.59445682484056 279.24124418915983 139.7833704745217C279.24124418915983 326.16119777388394 0 326.16119777388394 0 139.7833704745217Z " stroke-dasharray="10,6,3,6" stroke="rgba(229,229,229,1)" stroke-width="4" fill="none"></path><g id="SvgjsG2100"><text id="SvgjsText2101" font-family="微软雅黑" text-anchor="middle" font-size="13px" width="260px" fill="#323232" font-weight="400" align="middle" lineHeight="125%" font-style="" opacity="1" y="130.1583704745217" transform="rotate(0)"></text></g></g><g id="SvgjsG2102" transform="translate(25.012095218682134,148.01797961940275)"><path id="SvgjsPath2103" d="M0 4Q0 0 4 0L116 0Q120 0 120 4L120 41Q120 45 116 45L4 45Q0 45 0 41Z " stroke="rgba(0,255,255,1)" stroke-width="2" fill="none"></path><g id="SvgjsG2104"><text id="SvgjsText2105" font-family="微软雅黑" text-anchor="middle" font-size="18px" width="100px" fill="#ffffff" font-weight="400" align="middle" lineHeight="125%" font-style="" opacity="1" y="9.25" transform="rotate(0)"><tspan id="SvgjsTspan2106" dy="22" x="60"><tspan id="SvgjsTspan2107" style="text-decoration:;">Writer</tspan></tspan></text></g></g><g id="SvgjsG2108" transform="translate(196.66955378221792,172.14081417917066)"><path id="SvgjsPath2109" d="M0 357.8591858208292Q6.417419621778206 357.8591858208292 6.417419621778206 348.8591858208292L6.417419621778206 187.9295929104146Q6.417419621778206 178.9295929104146 22 178.9295929104146Q6.417419621778206 178.9295929104146 6.417419621778206 169.9295929104146L6.417419621778206 9Q6.417419621778206 0 0 0 " stroke="rgba(0,255,255,1)" stroke-width="2" fill="none"></path><path id="SvgjsPath2110" d="M0 0L64.17419621778205 0L64.17419621778205 357.8591858208292L0 357.8591858208292Z " stroke="none" fill="none"></path><g id="SvgjsG2111"><text id="SvgjsText2112" font-family="微软雅黑" text-anchor="start" font-size="18px" width="38px" fill="#ffffff" font-weight="400" align="middle" lineHeight="125%" font-style="" opacity="1" y="165.6795929104146" transform="rotate(0)"></text></g></g><g id="SvgjsG2113" transform="translate(740.84375,172.14081417917066)"><path id="SvgjsPath2114" d="M0 357.8591858208292Q3.5 357.8591858208292 3.5 348.8591858208292L3.5 187.9295929104146Q3.5 178.9295929104146 22 178.9295929104146Q3.5 178.9295929104146 3.5 169.9295929104146L3.5 9Q3.5 0 0 0 " stroke="rgba(0,255,255,1)" stroke-width="2" fill="none"></path><path id="SvgjsPath2115" d="M0 0L35 0L35 357.8591858208292L0 357.8591858208292Z " stroke="none" fill="none"></path><g id="SvgjsG2116"><text id="SvgjsText2117" font-family="微软雅黑" text-anchor="start" font-size="18px" width="8px" fill="#ffffff" font-weight="400" align="middle" lineHeight="125%" font-style="" opacity="1" y="165.6795929104146" transform="rotate(0)"></text></g></g><g id="SvgjsG2118" transform="translate(810.448437614087,148.01797961940275)"><path id="SvgjsPath2119" d="M0 4Q0 0 4 0L116 0Q120 0 120 4L120 41Q120 45 116 45L4 45Q0 45 0 41Z " stroke="rgba(0,255,255,1)" stroke-width="2" fill="none"></path><g id="SvgjsG2120"><text id="SvgjsText2121" font-family="微软雅黑" text-anchor="middle" font-size="18px" width="100px" fill="#ffffff" font-weight="400" align="middle" lineHeight="125%" font-style="" opacity="1" y="9.25" transform="rotate(0)"><tspan id="SvgjsTspan2122" dy="22" x="60"><tspan id="SvgjsTspan2123" style="text-decoration:;">Books</tspan></tspan></text></g></g><g id="SvgjsG2124" transform="translate(810.448437614087,219.6377745910521)"><path id="SvgjsPath2125" d="M0 4Q0 0 4 0L116 0Q120 0 120 4L120 41Q120 45 116 45L4 45Q0 45 0 41Z " stroke="rgba(0,255,255,1)" stroke-width="2" fill="none"></path><g id="SvgjsG2126"><text id="SvgjsText2127" font-family="微软雅黑" text-anchor="middle" font-size="18px" width="100px" fill="#ffffff" font-weight="400" align="middle" lineHeight="125%" font-style="" opacity="1" y="9.25" transform="rotate(0)"><tspan id="SvgjsTspan2128" dy="22" x="60"><tspan id="SvgjsTspan2129" style="text-decoration:;">Films</tspan></tspan></text></g></g><g id="SvgjsG2130" transform="translate(810.448437614087,291.2575695627015)"><path id="SvgjsPath2131" d="M0 4Q0 0 4 0L116 0Q120 0 120 4L120 41Q120 45 116 45L4 45Q0 45 0 41Z " stroke="rgba(0,255,255,1)" stroke-width="2" fill="none"></path><g id="SvgjsG2132"><text id="SvgjsText2133" font-family="微软雅黑" text-anchor="middle" font-size="18px" width="100px" fill="#ffffff" font-weight="400" align="middle" lineHeight="125%" font-style="" opacity="1" y="9.25" transform="rotate(0)"><tspan id="SvgjsTspan2134" dy="22" x="60"><tspan id="SvgjsTspan2135" style="text-decoration:;">Games</tspan></tspan></text></g></g><g id="SvgjsG2136" transform="translate(810.448437614087,362.8773645343508)"><path id="SvgjsPath2137" d="M0 4Q0 0 4 0L116 0Q120 0 120 4L120 41Q120 45 116 45L4 45Q0 45 0 41Z " stroke="rgba(0,255,255,1)" stroke-width="2" fill="none"></path><g id="SvgjsG2138"><text id="SvgjsText2139" font-family="微软雅黑" text-anchor="middle" font-size="18px" width="100px" fill="#ffffff" font-weight="400" align="middle" lineHeight="125%" font-style="" opacity="1" y="9.25" transform="rotate(0)"><tspan id="SvgjsTspan2140" dy="22" x="60"><tspan id="SvgjsTspan2141" style="text-decoration:;">Artwork</tspan></tspan></text></g></g><g id="SvgjsG2142" transform="translate(810.448437614087,434.49715950600034)"><path id="SvgjsPath2143" d="M0 4Q0 0 4 0L116 0Q120 0 120 4L120 41Q120 45 116 45L4 45Q0 45 0 41Z " stroke="rgba(0,255,255,1)" stroke-width="2" fill="none"></path><g id="SvgjsG2144"><text id="SvgjsText2145" font-family="微软雅黑" text-anchor="middle" font-size="18px" width="100px" fill="#ffffff" font-weight="400" align="middle" lineHeight="125%" font-style="" opacity="1" y="9.25" transform="rotate(0)"><tspan id="SvgjsTspan2146" dy="22" x="60"><tspan id="SvgjsTspan2147" style="text-decoration:;">Toys</tspan></tspan></text></g></g><g id="SvgjsG2148" transform="translate(25.012095218682134,220.45935656609487)"><path id="SvgjsPath2149" d="M0 4Q0 0 4 0L116 0Q120 0 120 4L120 41Q120 45 116 45L4 45Q0 45 0 41Z " stroke="rgba(0,255,255,1)" stroke-width="2" fill="none"></path><g id="SvgjsG2150"><text id="SvgjsText2151" font-family="微软雅黑" text-anchor="middle" font-size="18px" width="100px" fill="#ffffff" font-weight="400" align="middle" lineHeight="125%" font-style="" opacity="1" y="9.25" transform="rotate(0)"><tspan id="SvgjsTspan2152" dy="22" x="60"><tspan id="SvgjsTspan2153" style="text-decoration:;">Artist</tspan></tspan></text></g></g><g id="SvgjsG2154" transform="translate(25.012095218682134,292.9007335127869)"><path id="SvgjsPath2155" d="M0 4Q0 0 4 0L116 0Q120 0 120 4L120 41Q120 45 116 45L4 45Q0 45 0 41Z " stroke="rgba(0,255,255,1)" stroke-width="2" fill="none"></path><g id="SvgjsG2156"><text id="SvgjsText2157" font-family="微软雅黑" text-anchor="middle" font-size="18px" width="100px" fill="#ffffff" font-weight="400" align="middle" lineHeight="125%" font-style="" opacity="1" y="9.25" transform="rotate(0)"><tspan id="SvgjsTspan2158" dy="22" x="60"><tspan id="SvgjsTspan2159" style="text-decoration:;">Director</tspan></tspan></text></g></g><g id="SvgjsG2160" transform="translate(25.012095218682134,365.34211045947904)"><path id="SvgjsPath2161" d="M0 4Q0 0 4 0L116 0Q120 0 120 4L120 41Q120 45 116 45L4 45Q0 45 0 41Z " stroke="rgba(0,255,255,1)" stroke-width="2" fill="none"></path><g id="SvgjsG2162"><text id="SvgjsText2163" font-family="微软雅黑" text-anchor="middle" font-size="18px" width="100px" fill="#ffffff" font-weight="400" align="middle" lineHeight="125%" font-style="" opacity="1" y="9.25" transform="rotate(0)"><tspan id="SvgjsTspan2164" dy="22" x="60"><tspan id="SvgjsTspan2165" style="text-decoration:;">Investor</tspan></tspan></text></g></g><g id="SvgjsG2166" transform="translate(25.012095218682134,437.78348740617116)"><path id="SvgjsPath2167" d="M0 4Q0 0 4 0L116 0Q120 0 120 4L120 41Q120 45 116 45L4 45Q0 45 0 41Z " stroke="rgba(0,255,255,1)" stroke-width="2" fill="none"></path><g id="SvgjsG2168"><text id="SvgjsText2169" font-family="微软雅黑" text-anchor="middle" font-size="18px" width="100px" fill="#ffffff" font-weight="400" align="middle" lineHeight="125%" font-style="" opacity="1" y="9.25" transform="rotate(0)"><tspan id="SvgjsTspan2170" dy="22" x="60"><tspan id="SvgjsTspan2171" style="text-decoration:;">Manager</tspan></tspan></text></g></g><g id="SvgjsG2172" transform="translate(358.8988355501738,25)"><path id="SvgjsPath2173" d="M0 0L247.22651933701655 0L247.22651933701655 39.31506849315068L0 39.31506849315068Z " stroke="none" fill="none"></path><g id="SvgjsG2174"><text id="SvgjsText2175" font-family="微软雅黑" text-anchor="middle" font-size="40px" width="248px" fill="#ffffff" font-weight="400" align="middle" lineHeight="125%" font-style="" opacity="1" y="-12.342465753424658" transform="rotate(0)"><tspan id="SvgjsTspan2176" dy="50" x="124"><tspan id="SvgjsTspan2177" style="text-decoration:;">Scifan Chain</tspan></tspan></text></g></g><g id="SvgjsG2178" transform="translate(534.6393544634548,342.8058150417012)"><path id="SvgjsPath2179" d="M0 73.38654819632947C0 -24.462182732109824 146.6022099447514 -24.462182732109824 146.6022099447514 73.38654819632947C146.6022099447514 171.23527912476877 0 171.23527912476877 0 73.38654819632947Z " stroke="rgba(76,0,153,1)" stroke-width="2" fill="url(#SvgjsRadialGradient2180)"></path><g id="SvgjsG2183"><text id="SvgjsText2184" font-family="微软雅黑" text-anchor="middle" font-size="20px" width="127px" fill="#ffffff" font-weight="400" align="middle" lineHeight="125%" font-style="" opacity="1" y="45.88654819632947" transform="rotate(0)"><tspan id="SvgjsTspan2185" dy="25" x="73.5"><tspan id="SvgjsTspan2186" style="text-decoration:;">Service</tspan></tspan><tspan id="SvgjsTspan2187" dy="25" x="73.5"><tspan id="SvgjsTspan2188" style="text-decoration:;">Layer</tspan></tspan></text></g></g><g id="SvgjsG2189" transform="translate(398.4995705686715,130.7129613065831)"><path id="SvgjsPath2190" d="M0 73.38654819632947C0 -24.462182732109824 146.6022099447514 -24.462182732109824 146.6022099447514 73.38654819632947C146.6022099447514 171.23527912476877 0 171.23527912476877 0 73.38654819632947Z " stroke="rgba(0,102,204,1)" stroke-width="2" fill="url(#SvgjsRadialGradient2191)"></path><g id="SvgjsG2194"><text id="SvgjsText2195" font-family="微软雅黑" text-anchor="middle" font-size="20px" width="127px" fill="#ffffff" font-weight="400" align="middle" lineHeight="125%" font-style="" opacity="1" y="45.88654819632947" transform="rotate(0)"><tspan id="SvgjsTspan2196" dy="25" x="73.5"><tspan id="SvgjsTspan2197" style="text-decoration:;">Application</tspan></tspan><tspan id="SvgjsTspan2198" dy="25" x="73.5"><tspan id="SvgjsTspan2199" style="text-decoration:;">Space</tspan></tspan></text></g></g><g id="SvgjsG2200" transform="translate(255.39147312410216,331.67130428087876)"><path id="SvgjsPath2201" d="M0 73.38654819632947C0 -24.462182732109824 146.6022099447514 -24.462182732109824 146.6022099447514 73.38654819632947C146.6022099447514 171.23527912476877 0 171.23527912476877 0 73.38654819632947Z " stroke="rgba(76,0,153,1)" stroke-width="2" fill="url(#SvgjsRadialGradient2202)"></path><g id="SvgjsG2205"><text id="SvgjsText2206" font-family="微软雅黑" text-anchor="middle" font-size="20px" width="127px" fill="#ffffff" font-weight="400" align="middle" lineHeight="125%" font-style="" opacity="1" y="45.88654819632947" transform="rotate(0)"><tspan id="SvgjsTspan2207" dy="25" x="73.5"><tspan id="SvgjsTspan2208" style="text-decoration:;">Block</tspan></tspan><tspan id="SvgjsTspan2209" dy="25" x="73.5"><tspan id="SvgjsTspan2210" style="text-decoration:;">Chain</tspan></tspan></text></g></g><g id="SvgjsG2211" transform="translate(221.3216870747426,220.42804178487825)"><path id="SvgjsPath2212" d="M0 0L121.32596685082872 0L121.32596685082872 40.489130039354194L0 40.489130039354194Z " stroke="none" fill="none"></path><g id="SvgjsG2213"><text id="SvgjsText2214" font-family="微软雅黑" text-anchor="middle" font-size="18px" width="122px" fill="#e6ffcc" font-weight="700" align="middle" lineHeight="125%" font-style="" opacity="1" y="-4.005434980322903" transform="rotate(0)"><tspan id="SvgjsTspan2215" dy="22" x="61"><tspan id="SvgjsTspan2216" style="text-decoration:;">Capture </tspan></tspan><tspan id="SvgjsTspan2217" dy="22" x="61"><tspan id="SvgjsTspan2218" style="text-decoration:;">Value</tspan></tspan></text></g></g><g id="SvgjsG2219" transform="translate(612.3807860382848,220.42804178487825)"><path id="SvgjsPath2220" d="M0 0L121.32596685082872 0L121.32596685082872 40.489130039354194L0 40.489130039354194Z " stroke="none" fill="none"></path><g id="SvgjsG2221"><text id="SvgjsText2222" font-family="微软雅黑" text-anchor="middle" font-size="18px" width="122px" fill="#e6ffcc" font-weight="700" align="middle" lineHeight="125%" font-style="" opacity="1" y="-4.005434980322903" transform="rotate(0)"><tspan id="SvgjsTspan2223" dy="22" x="61"><tspan id="SvgjsTspan2224" style="text-decoration:;">Enhance </tspan></tspan><tspan id="SvgjsTspan2225" dy="22" x="61"><tspan id="SvgjsTspan2226" style="text-decoration:;">Value</tspan></tspan></text></g></g><g id="SvgjsG2227" transform="translate(406.48557099240725,506.57891143436007)"><path id="SvgjsPath2228" d="M0 0L139.33334144619914 0L139.33334144619914 44.538043043289605L0 44.538043043289605Z " stroke="none" fill="none"></path><g id="SvgjsG2229"><text id="SvgjsText2230" font-family="微软雅黑" text-anchor="middle" font-size="18px" width="140px" fill="#e6ffcc" font-weight="700" align="middle" lineHeight="125%" font-style="" opacity="1" y="-1.9809784783551976" transform="rotate(0)"><tspan id="SvgjsTspan2231" dy="22" x="70"><tspan id="SvgjsTspan2232" style="text-decoration:;">Confirmatory </tspan></tspan><tspan id="SvgjsTspan2233" dy="22" x="70"><tspan id="SvgjsTspan2234" style="text-decoration:;">Value</tspan></tspan></text></g></g><g id="SvgjsG2235" transform="translate(25.012095218682134,510.2248643528633)"><path id="SvgjsPath2236" d="M0 4Q0 0 4 0L116 0Q120 0 120 4L120 41Q120 45 116 45L4 45Q0 45 0 41Z " stroke="rgba(0,255,255,1)" stroke-width="2" fill="none"></path><g id="SvgjsG2237"><text id="SvgjsText2238" font-family="微软雅黑" text-anchor="middle" font-size="18px" width="100px" fill="#ffffff" font-weight="400" align="middle" lineHeight="125%" font-style="" opacity="1" y="9.25" transform="rotate(0)"><tspan id="SvgjsTspan2239" dy="22" x="60"><tspan id="SvgjsTspan2240" style="text-decoration:;">…</tspan></tspan></text></g></g><g id="SvgjsG2241" transform="translate(810.448437614087,506.11695447764964)"><path id="SvgjsPath2242" d="M0 4Q0 0 4 0L116 0Q120 0 120 4L120 41Q120 45 116 45L4 45Q0 45 0 41Z " stroke="rgba(0,255,255,1)" stroke-width="2" fill="none"></path><g id="SvgjsG2243"><text id="SvgjsText2244" font-family="微软雅黑" text-anchor="middle" font-size="18px" width="100px" fill="#ffffff" font-weight="400" align="middle" lineHeight="125%" font-style="" opacity="1" y="9.25" transform="rotate(0)"><tspan id="SvgjsTspan2245" dy="22" x="60"><tspan id="SvgjsTspan2246" style="text-decoration:;">…</tspan></tspan></text></g></g></svg>