<?xml version="1.0" standalone="no"?><?xml-stylesheet type="text/css" href="https://www.processon.com/themes/default/mind/icons/icons.css" ?><!DOCTYPE svg PUBLIC "-//W3C//DTD SVG 1.1//EN" "http://www.w3.org/Graphics/SVG/1.1/DTD/svg11.dtd"><svg id="SvgjsSvg1320" xmlns="http://www.w3.org/2000/svg" version="1.1" xmlns:xlink="http://www.w3.org/1999/xlink" xmlns:svgjs="http://svgjs.com/svgjs" width="1070" height="693.5"><defs id="SvgjsDefs1321"><pattern id="SvgjsPattern1341" x="0" y="0" width="61" height="55" patternUnits="userSpaceOnUse"><image id="SvgjsImage1342" xlink:href="https://wps.processon.com/assets/images/designer/network_azure/ServiceFabric.svg" width="61" height="55" preserveAspectRatio="none" crossOrigin="anonymous" x="0" y="0"></image></pattern><pattern id="SvgjsPattern1359" x="0" y="0" width="61" height="55" patternUnits="userSpaceOnUse"><image id="SvgjsImage1360" xlink:href="https://wps.processon.com/assets/images/designer/network_azure/User.svg" width="61" height="55" preserveAspectRatio="none" crossOrigin="anonymous" x="0" y="0"></image></pattern><pattern id="SvgjsPattern1367" x="0" y="0" width="70" height="62" patternUnits="userSpaceOnUse"><image id="SvgjsImage1368" xlink:href="https://wps.processon.com/assets/images/designer/network_azure/UnidentifiedCodeObject_UFO.svg" width="70" height="62" preserveAspectRatio="none" crossOrigin="anonymous" x="0" y="0"></image></pattern><pattern id="SvgjsPattern1375" x="0" y="0" width="43.5" height="62" patternUnits="userSpaceOnUse"><image id="SvgjsImage1376" xlink:href="https://wps.processon.com/assets/images/designer/network_azure/LoadBalancer_Generic.svg" width="43.5" height="62" preserveAspectRatio="none" crossOrigin="anonymous" x="0" y="0"></image></pattern><pattern id="SvgjsPattern1383" x="0" y="0" width="61" height="62" patternUnits="userSpaceOnUse"><image id="SvgjsImage1384" xlink:href="https://wps.processon.com/assets/images/designer/network_azure/Add-Ons.svg" width="61" height="62" preserveAspectRatio="none" crossOrigin="anonymous" x="0" y="0"></image></pattern><marker id="SvgjsMarker1391" markerWidth="16" markerHeight="12" refX="10" refY="6" viewBox="0 0 16 12" orient="auto" markerUnits="userSpaceOnUse" stroke-dasharray="0,0"><path id="SvgjsPath1392" d="M0 3L10 6L0 9L0 3 " fill="#3399ff" stroke="#3399ff" stroke-width="1"></path></marker><marker id="SvgjsMarker1395" markerWidth="16" markerHeight="12" refX="10" refY="6" viewBox="0 0 16 12" orient="auto" markerUnits="userSpaceOnUse" stroke-dasharray="0,0"><path id="SvgjsPath1396" d="M0 3L10 6L0 9L0 3 " fill="#3399ff" stroke="#3399ff" stroke-width="1"></path></marker><marker id="SvgjsMarker1399" markerWidth="16" markerHeight="12" refX="10" refY="6" viewBox="0 0 16 12" orient="auto" markerUnits="userSpaceOnUse" stroke-dasharray="0,0"><path id="SvgjsPath1400" d="M0 3L10 6L0 9L0 3 " fill="#66b2ff" stroke="#66b2ff" stroke-width="1"></path></marker><marker id="SvgjsMarker1403" markerWidth="16" markerHeight="12" refX="10" refY="6" viewBox="0 0 16 12" orient="auto" markerUnits="userSpaceOnUse" stroke-dasharray="0,0"><path id="SvgjsPath1404" d="M0 3L10 6L0 9L0 3 " fill="#66b2ff" stroke="#66b2ff" stroke-width="1"></path></marker><marker id="SvgjsMarker1407" markerWidth="16" markerHeight="12" refX="10" refY="6" viewBox="0 0 16 12" orient="auto" markerUnits="userSpaceOnUse" stroke-dasharray="0,0"><path id="SvgjsPath1408" d="M0 3L10 6L0 9L0 3 " fill="#66b2ff" stroke="#66b2ff" stroke-width="1"></path></marker><marker id="SvgjsMarker1411" markerWidth="16" markerHeight="12" refX="10" refY="6" viewBox="0 0 16 12" orient="auto" markerUnits="userSpaceOnUse" stroke-dasharray="0,0"><path id="SvgjsPath1412" d="M0 3L10 6L0 9L0 3 " fill="#66b2ff" stroke="#66b2ff" stroke-width="1"></path></marker><pattern id="SvgjsPattern1475" x="0" y="0" width="61" height="62" patternUnits="userSpaceOnUse"><image id="SvgjsImage1476" xlink:href="https://wps.processon.com/assets/images/designer/network_azure/TrafficManager.svg" width="61" height="62" preserveAspectRatio="none" crossOrigin="anonymous" x="0" y="0"></image></pattern><pattern id="SvgjsPattern1483" x="0" y="0" width="75" height="68" patternUnits="userSpaceOnUse"><image id="SvgjsImage1484" xlink:href="https://wps.processon.com/assets/images/designer/network_aliyun/ApplicationServices/MTS.svg" width="75" height="68" preserveAspectRatio="none" crossOrigin="anonymous" x="0" y="0"></image></pattern><pattern id="SvgjsPattern1491" x="0" y="0" width="70" height="62" patternUnits="userSpaceOnUse"><image id="SvgjsImage1492" xlink:href="https://wps.processon.com/assets/images/designer/network_aliyun/ElasticCalculation/ROS.svg" width="70" height="62" preserveAspectRatio="none" crossOrigin="anonymous" x="0" y="0"></image></pattern><pattern id="SvgjsPattern1499" x="0" y="0" width="75" height="62" patternUnits="userSpaceOnUse"><image id="SvgjsImage1500" xlink:href="https://wps.processon.com/assets/images/designer/network_azure/CloudService.svg" width="75" height="62" preserveAspectRatio="none" crossOrigin="anonymous" x="0" y="0"></image></pattern><pattern id="SvgjsPattern1511" x="0" y="0" width="70" height="68" patternUnits="userSpaceOnUse"><image id="SvgjsImage1512" xlink:href="https://cdn1.processon.com/5bf3a62fe4b08b2d56f8886c?e=1542698047&amp;token=trhI0BY8QfVrIGn9nENop6JAc6l5nZuxhjQ62UfM:L8pzTykSmnBMkcuHun6tBpJn6k8=" width="70" height="68" preserveAspectRatio="none" crossOrigin="anonymous" x="0" y="0"></image></pattern><pattern id="SvgjsPattern1527" x="0" y="0" width="70" height="68" patternUnits="userSpaceOnUse"><image id="SvgjsImage1528" xlink:href="https://wps.processon.com/assets/images/designer/network_aliyun/ApplicationServices/SLS.svg" width="70" height="68" preserveAspectRatio="none" crossOrigin="anonymous" x="0" y="0"></image></pattern><marker id="SvgjsMarker1549" markerWidth="16" markerHeight="12" refX="0" refY="6" viewBox="0 0 16 12" orient="auto" markerUnits="userSpaceOnUse" stroke-dasharray="0,0"><path id="SvgjsPath1550" d="M10 3L0 6L10 9 " fill="#0dcaf0" stroke="#0dcaf0" stroke-width="1"></path></marker><marker id="SvgjsMarker1553" markerWidth="16" markerHeight="12" refX="0" refY="6" viewBox="0 0 16 12" orient="auto" markerUnits="userSpaceOnUse" stroke-dasharray="0,0"><path id="SvgjsPath1554" d="M10 3L0 6L10 9 " fill="#0dcaf0" stroke="#0dcaf0" stroke-width="1"></path></marker><marker id="SvgjsMarker1557" markerWidth="16" markerHeight="12" refX="0" refY="6" viewBox="0 0 16 12" orient="auto" markerUnits="userSpaceOnUse" stroke-dasharray="0,0"><path id="SvgjsPath1558" d="M10 3L0 6L10 9 " fill="#0dcaf0" stroke="#0dcaf0" stroke-width="1"></path></marker><marker id="SvgjsMarker1561" markerWidth="16" markerHeight="12" refX="0" refY="6" viewBox="0 0 16 12" orient="auto" markerUnits="userSpaceOnUse" stroke-dasharray="0,0"><path id="SvgjsPath1562" d="M10 3L0 6L10 9 " fill="#0dcaf0" stroke="#0dcaf0" stroke-width="1"></path></marker><pattern id="SvgjsPattern1579" x="0" y="0" width="86" height="83" patternUnits="userSpaceOnUse"><image id="SvgjsImage1580" xlink:href="https://cdn1.processon.com/61337778e4b053a18e6f7fd4?e=1630766472&amp;amp;token=trhI0BY8QfVrIGn9nENop6JAc6l5nZuxhjQ62UfM:l8hM-t_nTh6tQFGW8FYr4vncUl4=" width="86" height="83" preserveAspectRatio="none" crossOrigin="anonymous" x="0" y="0"></image></pattern><pattern id="SvgjsPattern1583" x="0" y="0" width="93" height="83" patternUnits="userSpaceOnUse"><image id="SvgjsImage1584" xlink:href="https://cdn1.processon.com/613377e4e4b0acc174b4e696?e=1630766580&amp;amp;token=trhI0BY8QfVrIGn9nENop6JAc6l5nZuxhjQ62UfM:Nlba0FQjq28MeLsqy5M6B0QwZE8=" width="93" height="83" preserveAspectRatio="none" crossOrigin="anonymous" x="0" y="0"></image></pattern><pattern id="SvgjsPattern1587" x="0" y="0" width="75" height="83" patternUnits="userSpaceOnUse"><image id="SvgjsImage1588" xlink:href="https://cdn1.processon.com/6133780be4b0bbc08daea95b?e=1630766619&amp;amp;token=trhI0BY8QfVrIGn9nENop6JAc6l5nZuxhjQ62UfM:LnvYnCErsKhJ_KeaAztAJ-z8plo=" width="75" height="83" preserveAspectRatio="none" crossOrigin="anonymous" x="0" y="0"></image></pattern><pattern id="SvgjsPattern1597" x="0" y="0" width="61" height="62" patternUnits="userSpaceOnUse"><image id="SvgjsImage1598" xlink:href="https://cdn1.processon.com/61337cbbe4b092636eaac9a3?e=1630767819&amp;amp;token=trhI0BY8QfVrIGn9nENop6JAc6l5nZuxhjQ62UfM:aUvokUVJ7irg6mWYgpp3qYtMup4=" width="61" height="62" preserveAspectRatio="none" crossOrigin="anonymous" x="0" y="0"></image></pattern><pattern id="SvgjsPattern1601" x="0" y="0" width="70" height="68" patternUnits="userSpaceOnUse"><image id="SvgjsImage1602" xlink:href="https://cdn1.processon.com/61337d43e4b0e85a27d5538d?e=1630767955&amp;amp;token=trhI0BY8QfVrIGn9nENop6JAc6l5nZuxhjQ62UfM:GFESJ8bMUBGsNJ_FMSL6PDaWuN4=" width="70" height="68" preserveAspectRatio="none" crossOrigin="anonymous" x="0" y="0"></image></pattern><pattern patternUnits="userSpaceOnUse" id="pattern_mark" width="300" height="300"><text x="-50" y="150" fill="rgba(0,0,0,0.8)" font-size="18" transform="rotate(-45, 150, 150)"></text></pattern></defs><rect fill="url(#pattern_mark)" transform="translate(-22.5,-18)" width="1800" height="1182" id="rect_mark" pointer-events="none"></rect><g id="SvgjsG1325" transform="translate(25,249.5)"><path id="SvgjsPath1326" d="M0 0L863 0L863 419.92857142857156L0 419.92857142857156Z " stroke-dasharray="10,6" stroke="rgba(153,204,255,1)" stroke-width="1" fill="none"></path><g id="SvgjsG1327"><text id="SvgjsText1328" font-family="微软雅黑" text-anchor="middle" font-size="13px" width="843px" fill="#0dcaf0" font-weight="400" align="middle" lineHeight="125%" font-style="" opacity="1" y="200.33928571428578" transform="rotate(0)"></text></g></g><g id="SvgjsG1329" transform="translate(41.5,277)"><path id="SvgjsPath1330" d="M0 0L134 0L134 367L0 367Z " stroke-dasharray="10,6" stroke="rgba(102,255,255,1)" stroke-width="1" fill="none"></path><g id="SvgjsG1331"><text id="SvgjsText1332" font-family="微软雅黑" text-anchor="middle" font-size="13px" width="114px" fill="#0dcaf0" font-weight="400" align="middle" lineHeight="125%" font-style="" opacity="1" y="173.875" transform="rotate(0)"></text></g></g><g id="SvgjsG1333" transform="translate(65,265.5)"><path id="SvgjsPath1334" d="M0 4Q0 0 4 0L71 0Q75 0 75 4L75 29Q75 33 71 33L4 33Q0 33 0 29Z " stroke="rgba(51,153,255,1)" stroke-width="1" fill-opacity="1" fill="#0dcaf0"></path><g id="SvgjsG1335"><text id="SvgjsText1336" font-family="微软雅黑" text-anchor="middle" font-size="13px" width="55px" fill="#ffffff" font-weight="400" align="middle" lineHeight="125%" font-style="" opacity="1" y="6.875" transform="rotate(0)"><tspan id="SvgjsTspan1337" dy="16" x="37.5"><tspan id="SvgjsTspan1338" style="text-decoration:;">基础层</tspan></tspan></text></g></g><g id="SvgjsG1339" transform="translate(80,357.5)"><path id="SvgjsPath1340" d="M0 0L61 0L61 55L0 55Z " stroke="none" fill="url(#SvgjsPattern1341)"></path><g id="SvgjsG1343"><text id="SvgjsText1344" font-family="微软雅黑" text-anchor="middle" font-size="13px" width="101px" fill="#0dcaf0" font-weight="400" align="middle" lineHeight="125%" font-style="" opacity="1" y="60.375" transform="rotate(0)"><tspan id="SvgjsTspan1345" dy="16" x="30.5"><tspan id="SvgjsTspan1346" style="text-decoration:;">Substrate</tspan></tspan></text></g></g><g id="SvgjsG1347" transform="translate(181.5,277)"><path id="SvgjsPath1348" d="M0 0L249 0L249 367L0 367Z " stroke-dasharray="10,6" stroke="rgba(102,255,255,1)" stroke-width="1" fill="none"></path><g id="SvgjsG1349"><text id="SvgjsText1350" font-family="微软雅黑" text-anchor="middle" font-size="13px" width="229px" fill="#0dcaf0" font-weight="400" align="middle" lineHeight="125%" font-style="" opacity="1" y="173.875" transform="rotate(0)"></text></g></g><g id="SvgjsG1351" transform="translate(266.5,265.5)"><path id="SvgjsPath1352" d="M0 4Q0 0 4 0L71 0Q75 0 75 4L75 29Q75 33 71 33L4 33Q0 33 0 29Z " stroke="rgba(51,153,255,1)" stroke-width="1" fill-opacity="1" fill="#0dcaf0"></path><g id="SvgjsG1353"><text id="SvgjsText1354" font-family="微软雅黑" text-anchor="middle" font-size="13px" width="55px" fill="#ffffff" font-weight="400" align="middle" lineHeight="125%" font-style="" opacity="1" y="6.875" transform="rotate(0)"><tspan id="SvgjsTspan1355" dy="16" x="37.5"><tspan id="SvgjsTspan1356" style="text-decoration:;">结构层</tspan></tspan></text></g></g><g id="SvgjsG1357" transform="translate(209,299.5)"><path id="SvgjsPath1358" d="M0 0L61 0L61 55L0 55Z " stroke="none" fill="url(#SvgjsPattern1359)"></path><g id="SvgjsG1361"><text id="SvgjsText1362" font-family="微软雅黑" text-anchor="middle" font-size="13px" width="101px" fill="#0dcaf0" font-weight="400" align="middle" lineHeight="125%" font-style="" opacity="1" y="60.375" transform="rotate(0)"><tspan id="SvgjsTspan1363" dy="16" x="30.5"><tspan id="SvgjsTspan1364" style="text-decoration:;">用户模型</tspan></tspan></text></g></g><g id="SvgjsG1365" transform="translate(328.5,296)"><path id="SvgjsPath1366" d="M0 0L70 0L70 62L0 62Z " stroke="none" fill="url(#SvgjsPattern1367)"></path><g id="SvgjsG1369"><text id="SvgjsText1370" font-family="微软雅黑" text-anchor="middle" font-size="13px" width="110px" fill="#0dcaf0" font-weight="400" align="middle" lineHeight="125%" font-style="" opacity="1" y="67.375" transform="rotate(0)"><tspan id="SvgjsTspan1371" dy="16" x="35"><tspan id="SvgjsTspan1372" style="text-decoration:;">文本模型</tspan></tspan></text></g></g><g id="SvgjsG1373" transform="translate(341.75,547)"><path id="SvgjsPath1374" d="M0 0L43.5 0L43.5 62L0 62Z " stroke="none" fill="url(#SvgjsPattern1375)"></path><g id="SvgjsG1377"><text id="SvgjsText1378" font-family="微软雅黑" text-anchor="middle" font-size="13px" width="84px" fill="#0dcaf0" font-weight="400" align="middle" lineHeight="125%" font-style="" opacity="1" y="67.375" transform="rotate(0)"><tspan id="SvgjsTspan1379" dy="16" x="22"><tspan id="SvgjsTspan1380" style="text-decoration:;">智能辅助模型</tspan></tspan></text></g></g><g id="SvgjsG1381" transform="translate(209,547)"><path id="SvgjsPath1382" d="M0 0L61 0L61 62L0 62Z " stroke="none" fill="url(#SvgjsPattern1383)"></path><g id="SvgjsG1385"><text id="SvgjsText1386" font-family="微软雅黑" text-anchor="middle" font-size="13px" width="101px" fill="#0dcaf0" font-weight="400" align="middle" lineHeight="125%" font-style="" opacity="1" y="67.375" transform="rotate(0)"><tspan id="SvgjsTspan1387" dy="16" x="30.5"><tspan id="SvgjsTspan1388" style="text-decoration:;">驱动激励模型</tspan></tspan></text></g></g><g id="SvgjsG1389"><path id="SvgjsPath1390" d="M363.5 506L363.5 524.75L363.5 524.75L363.5 543.5 " stroke="#3399ff" stroke-width="1" fill="none" marker-end="url(#SvgjsMarker1391)"></path></g><g id="SvgjsG1393"><path id="SvgjsPath1394" d="M363.5 386L363.5 404.75L363.5 404.75L363.5 423.5 " stroke="#3399ff" stroke-width="1" fill="none" marker-end="url(#SvgjsMarker1395)"></path></g><g id="SvgjsG1397"><path id="SvgjsPath1398" d="M234.5 543L234.5 524.5L234.5 524.5L234.5 506 " stroke="#66b2ff" stroke-width="1" fill="none" marker-end="url(#SvgjsMarker1399)"></path></g><g id="SvgjsG1401"><path id="SvgjsPath1402" d="M234.5 424L234.5 405.5L234.5 405.5L234.5 387 " stroke="#66b2ff" stroke-width="1" fill="none" marker-end="url(#SvgjsMarker1403)"></path></g><g id="SvgjsG1405"><path id="SvgjsPath1406" d="M276.5 343L298 343L298 343L319.5 343 " stroke="#66b2ff" stroke-width="1" fill="none" marker-end="url(#SvgjsMarker1407)"></path></g><g id="SvgjsG1409"><path id="SvgjsPath1410" d="M332.5 579L308 579L308 579L283.5 579 " stroke="#66b2ff" stroke-width="1" fill="none" marker-end="url(#SvgjsMarker1411)"></path></g><g id="SvgjsG1413" transform="translate(436.5,277)"><path id="SvgjsPath1414" d="M0 0L164 0L164 367L0 367Z " stroke-dasharray="10,6" stroke="rgba(102,255,255,1)" stroke-width="1" fill="none"></path><g id="SvgjsG1415"><text id="SvgjsText1416" font-family="微软雅黑" text-anchor="middle" font-size="13px" width="144px" fill="#0dcaf0" font-weight="400" align="middle" lineHeight="125%" font-style="" opacity="1" y="173.875" transform="rotate(0)"></text></g></g><g id="SvgjsG1417" transform="translate(479.5867346938776,265.5)"><path id="SvgjsPath1418" d="M0 4Q0 0 4 0L71 0Q75 0 75 4L75 29Q75 33 71 33L4 33Q0 33 0 29Z " stroke="rgba(51,153,255,1)" stroke-width="1" fill-opacity="1" fill="#0dcaf0"></path><g id="SvgjsG1419"><text id="SvgjsText1420" font-family="微软雅黑" text-anchor="middle" font-size="13px" width="55px" fill="#ffffff" font-weight="400" align="middle" lineHeight="125%" font-style="" opacity="1" y="6.875" transform="rotate(0)"><tspan id="SvgjsTspan1421" dy="16" x="37.5"><tspan id="SvgjsTspan1422" style="text-decoration:;">功能层</tspan></tspan></text></g></g><g id="SvgjsG1423" transform="translate(608,276.5)"><path id="SvgjsPath1424" d="M0 0L117 0L117 367L0 367Z " stroke-dasharray="10,6" stroke="rgba(102,255,255,1)" stroke-width="1" fill="none"></path><g id="SvgjsG1425"><text id="SvgjsText1426" font-family="微软雅黑" text-anchor="middle" font-size="13px" width="97px" fill="#0dcaf0" font-weight="400" align="middle" lineHeight="125%" font-style="" opacity="1" y="173.875" transform="rotate(0)"></text></g></g><g id="SvgjsG1427" transform="translate(629,265.5)"><path id="SvgjsPath1428" d="M0 4Q0 0 4 0L71 0Q75 0 75 4L75 29Q75 33 71 33L4 33Q0 33 0 29Z " stroke="rgba(51,153,255,1)" stroke-width="1" fill-opacity="1" fill="#0dcaf0"></path><g id="SvgjsG1429"><text id="SvgjsText1430" font-family="微软雅黑" text-anchor="middle" font-size="13px" width="55px" fill="#ffffff" font-weight="400" align="middle" lineHeight="125%" font-style="" opacity="1" y="6.875" transform="rotate(0)"><tspan id="SvgjsTspan1431" dy="16" x="37.5"><tspan id="SvgjsTspan1432" style="text-decoration:;">治理层</tspan></tspan></text></g></g><g id="SvgjsG1433" transform="translate(731.5,275.84365831640724)"><path id="SvgjsPath1434" d="M0 0L124 0L124 367L0 367Z " stroke-dasharray="10,6" stroke="rgba(102,255,255,1)" stroke-width="1" fill="none"></path><g id="SvgjsG1435"><text id="SvgjsText1436" font-family="微软雅黑" text-anchor="middle" font-size="13px" width="104px" fill="#0dcaf0" font-weight="400" align="middle" lineHeight="125%" font-style="" opacity="1" y="173.875" transform="rotate(0)"></text></g></g><g id="SvgjsG1437" transform="translate(756,265.5)"><path id="SvgjsPath1438" d="M0 4Q0 0 4 0L71 0Q75 0 75 4L75 29Q75 33 71 33L4 33Q0 33 0 29Z " stroke="rgba(51,153,255,1)" stroke-width="1" fill-opacity="1" fill="#0dcaf0"></path><g id="SvgjsG1439"><text id="SvgjsText1440" font-family="微软雅黑" text-anchor="middle" font-size="13px" width="55px" fill="#ffffff" font-weight="400" align="middle" lineHeight="125%" font-style="" opacity="1" y="6.875" transform="rotate(0)"><tspan id="SvgjsTspan1441" dy="16" x="37.5"><tspan id="SvgjsTspan1442" style="text-decoration:;">生态层</tspan></tspan></text></g></g><g id="SvgjsG1443" transform="translate(457.2222222222223,330.66666666666663)"><path id="SvgjsPath1444" d="M0 4Q0 0 4 0L120 0Q124 0 124 4L124 29Q124 33 120 33L4 33Q0 33 0 29Z " stroke="rgba(153,204,255,1)" stroke-width="1" fill="none"></path><g id="SvgjsG1445"><text id="SvgjsText1446" font-family="微软雅黑" text-anchor="middle" font-size="13px" width="104px" fill="#0dcaf0" font-weight="400" align="middle" lineHeight="125%" font-style="" opacity="1" y="6.875" transform="rotate(0)"><tspan id="SvgjsTspan1447" dy="16" x="62"><tspan id="SvgjsTspan1448" style="text-decoration:;">RBAC权限</tspan></tspan></text></g></g><g id="SvgjsG1449" transform="translate(457.2222222222223,391.7023809523809)"><path id="SvgjsPath1450" d="M0 4Q0 0 4 0L120 0Q124 0 124 4L124 29Q124 33 120 33L4 33Q0 33 0 29Z " stroke="rgba(153,204,255,1)" stroke-width="1" fill="none"></path><g id="SvgjsG1451"><text id="SvgjsText1452" font-family="微软雅黑" text-anchor="middle" font-size="13px" width="104px" fill="#0dcaf0" font-weight="400" align="middle" lineHeight="125%" font-style="" opacity="1" y="6.875" transform="rotate(0)"><tspan id="SvgjsTspan1453" dy="16" x="62"><tspan id="SvgjsTspan1454" style="text-decoration:;">Token引擎</tspan></tspan></text></g></g><g id="SvgjsG1455" transform="translate(457.2222222222223,451.7023809523809)"><path id="SvgjsPath1456" d="M0 4Q0 0 4 0L120 0Q124 0 124 4L124 29Q124 33 120 33L4 33Q0 33 0 29Z " stroke="rgba(153,204,255,1)" stroke-width="1" fill="none"></path><g id="SvgjsG1457"><text id="SvgjsText1458" font-family="微软雅黑" text-anchor="middle" font-size="13px" width="104px" fill="#0dcaf0" font-weight="400" align="middle" lineHeight="125%" font-style="" opacity="1" y="6.875" transform="rotate(0)"><tspan id="SvgjsTspan1459" dy="16" x="62"><tspan id="SvgjsTspan1460" style="text-decoration:;">智能创作辅助引擎</tspan></tspan></text></g></g><g id="SvgjsG1461" transform="translate(457.2222222222223,509.16666666666674)"><path id="SvgjsPath1462" d="M0 4Q0 0 4 0L120 0Q124 0 124 4L124 29Q124 33 120 33L4 33Q0 33 0 29Z " stroke="rgba(153,204,255,1)" stroke-width="1" fill="none"></path><g id="SvgjsG1463"><text id="SvgjsText1464" font-family="微软雅黑" text-anchor="middle" font-size="13px" width="104px" fill="#0dcaf0" font-weight="400" align="middle" lineHeight="125%" font-style="" opacity="1" y="6.875" transform="rotate(0)"><tspan id="SvgjsTspan1465" dy="16" x="62"><tspan id="SvgjsTspan1466" style="text-decoration:;">协同创作平台</tspan></tspan></text></g></g><g id="SvgjsG1467" transform="translate(457.2222222222223,570.6666666666667)"><path id="SvgjsPath1468" d="M0 4Q0 0 4 0L120 0Q124 0 124 4L124 29Q124 33 120 33L4 33Q0 33 0 29Z " stroke="rgba(153,204,255,1)" stroke-width="1" fill="none"></path><g id="SvgjsG1469"><text id="SvgjsText1470" font-family="微软雅黑" text-anchor="middle" font-size="13px" width="104px" fill="#0dcaf0" font-weight="400" align="middle" lineHeight="125%" font-style="" opacity="1" y="6.875" transform="rotate(0)"><tspan id="SvgjsTspan1471" dy="16" x="62"><tspan id="SvgjsTspan1472" style="text-decoration:;">区块链存证</tspan></tspan></text></g></g><g id="SvgjsG1473" transform="translate(636,507)"><path id="SvgjsPath1474" d="M0 0L61 0L61 62L0 62Z " stroke="none" fill="url(#SvgjsPattern1475)"></path><g id="SvgjsG1477"><text id="SvgjsText1478" font-family="微软雅黑" text-anchor="middle" font-size="13px" width="101px" fill="#0dcaf0" font-weight="400" align="middle" lineHeight="125%" font-style="" opacity="1" y="67.375" transform="rotate(0)"><tspan id="SvgjsTspan1479" dy="16" x="30.5"><tspan id="SvgjsTspan1480" style="text-decoration:;">磋商投票</tspan></tspan></text></g></g><g id="SvgjsG1481" transform="translate(629,351)"><path id="SvgjsPath1482" d="M0 0L75 0L75 68L0 68Z " stroke="none" fill="url(#SvgjsPattern1483)"></path><g id="SvgjsG1485"><text id="SvgjsText1486" font-family="微软雅黑" text-anchor="middle" font-size="13px" width="115px" fill="#0dcaf0" font-weight="400" align="middle" lineHeight="125%" font-style="" opacity="1" y="73.375" transform="rotate(0)"><tspan id="SvgjsTspan1487" dy="16" x="37.5"><tspan id="SvgjsTspan1488" style="text-decoration:;">规约制度</tspan></tspan></text></g></g><g id="SvgjsG1489" transform="translate(758.5,354)"><path id="SvgjsPath1490" d="M0 0L70 0L70 62L0 62Z " stroke="none" fill="url(#SvgjsPattern1491)"></path><g id="SvgjsG1493"><text id="SvgjsText1494" font-family="微软雅黑" text-anchor="middle" font-size="13px" width="110px" fill="#0dcaf0" font-weight="400" align="middle" lineHeight="125%" font-style="" opacity="1" y="67.375" transform="rotate(0)"><tspan id="SvgjsTspan1495" dy="16" x="35"><tspan id="SvgjsTspan1496" style="text-decoration:;">合作伙伴</tspan></tspan></text></g></g><g id="SvgjsG1497" transform="translate(756,507)"><path id="SvgjsPath1498" d="M0 0L75 0L75 62L0 62Z " stroke="none" fill="url(#SvgjsPattern1499)"></path><g id="SvgjsG1501"><text id="SvgjsText1502" font-family="微软雅黑" text-anchor="middle" font-size="13px" width="115px" fill="#0dcaf0" font-weight="400" align="middle" lineHeight="125%" font-style="" opacity="1" y="67.375" transform="rotate(0)"><tspan id="SvgjsTspan1503" dy="16" x="37.5"><tspan id="SvgjsTspan1504" style="text-decoration:;">科幻行业</tspan></tspan></text></g></g><g id="SvgjsG1505" transform="translate(25,25)"><path id="SvgjsPath1506" d="M0 0L863 0L863 139.8461538461538L0 139.8461538461538Z " stroke-dasharray="10,6" stroke="rgba(153,204,255,1)" stroke-width="1" fill="none"></path><g id="SvgjsG1507"><text id="SvgjsText1508" font-family="微软雅黑" text-anchor="middle" font-size="13px" width="843px" fill="#0dcaf0" font-weight="400" align="middle" lineHeight="125%" font-style="" opacity="1" y="60.298076923076906" transform="rotate(0)"></text></g></g><g id="SvgjsG1509" transform="translate(301.5,57)"><path id="SvgjsPath1510" d="M0 0L70 0L70 68L0 68Z " stroke="none" fill="url(#SvgjsPattern1511)"></path></g><g id="SvgjsG1513" transform="translate(290,138.5)"><path id="SvgjsPath1514" d="M0 4Q0 0 4 0L89 0Q93 0 93 4L93 17Q93 21 89 21L4 21Q0 21 0 17Z " stroke="none" fill="none"></path><g id="SvgjsG1515"><text id="SvgjsText1516" font-family="微软雅黑" text-anchor="middle" font-size="13px" width="73px" fill="#0dcaf0" font-weight="400" align="middle" lineHeight="125%" font-style="" opacity="1" y="0.875" transform="rotate(0)"><tspan id="SvgjsTspan1517" dy="16" x="46.5"><tspan id="SvgjsTspan1518" style="text-decoration:;">创作空间</tspan></tspan></text></g></g><g id="SvgjsG1519" transform="translate(736,138.5)"><path id="SvgjsPath1520" d="M0 4Q0 0 4 0L71 0Q75 0 75 4L75 17Q75 21 71 21L4 21Q0 21 0 17Z " stroke="none" fill="none"></path><g id="SvgjsG1521"><text id="SvgjsText1522" font-family="微软雅黑" text-anchor="middle" font-size="13px" width="55px" fill="#0dcaf0" font-weight="400" align="middle" lineHeight="125%" font-style="" opacity="1" y="0.875" transform="rotate(0)"><tspan id="SvgjsTspan1523" dy="16" x="37.5"><tspan id="SvgjsTspan1524" style="text-decoration:;">社区</tspan></tspan></text></g></g><g id="SvgjsG1525" transform="translate(89.5,57)"><path id="SvgjsPath1526" d="M0 0L70 0L70 68L0 68Z " stroke="none" fill="url(#SvgjsPattern1527)"></path><g id="SvgjsG1529"><text id="SvgjsText1530" font-family="微软雅黑" text-anchor="middle" font-size="13px" width="110px" fill="#0dcaf0" font-weight="400" align="middle" lineHeight="125%" font-style="" opacity="1" y="73.375" transform="rotate(0)"></text></g></g><g id="SvgjsG1531" transform="translate(89.5,138.5)"><path id="SvgjsPath1532" d="M0 4Q0 0 4 0L82 0Q86 0 86 4L86 17Q86 21 82 21L4 21Q0 21 0 17Z " stroke="none" fill="none"></path><g id="SvgjsG1533"><text id="SvgjsText1534" font-family="微软雅黑" text-anchor="middle" font-size="13px" width="66px" fill="#0dcaf0" font-weight="400" align="middle" lineHeight="125%" font-style="" opacity="1" y="0.875" transform="rotate(0)"><tspan id="SvgjsTspan1535" dy="16" x="43"><tspan id="SvgjsTspan1536" style="text-decoration:;">宇宙框架</tspan></tspan></text></g></g><g id="SvgjsG1537" transform="translate(504,138.5)"><path id="SvgjsPath1538" d="M0 4Q0 0 4 0L99 0Q103 0 103 4L103 17Q103 21 99 21L4 21Q0 21 0 17Z " stroke="none" fill="none"></path><g id="SvgjsG1539"><text id="SvgjsText1540" font-family="微软雅黑" text-anchor="middle" font-size="13px" width="83px" fill="#0dcaf0" font-weight="400" align="middle" lineHeight="125%" font-style="" opacity="1" y="0.875" transform="rotate(0)"><tspan id="SvgjsTspan1541" dy="16" x="51.5"><tspan id="SvgjsTspan1542" style="text-decoration:;">Token钱包</tspan></tspan></text></g></g><g id="SvgjsG1543"><path id="SvgjsPath1544" d="M433.5 215L433.5 232.25L433.5 232.25L433.5 249.5 " stroke="#66b2ff" stroke-width="1" fill="none"></path></g><g id="SvgjsG1545"><path id="SvgjsPath1546" d="M131.5 214L455 214L455 214L778.5 214 " stroke="#0dcaf0" stroke-width="1" fill="none"></path></g><g id="SvgjsG1547"><path id="SvgjsPath1548" d="M132.5 164.8461538461538L132.5 189.4230769230769L132.5 189.4230769230769L132.5 214 " stroke="#0dcaf0" stroke-width="1" fill="none" marker-start="url(#SvgjsMarker1549)"></path></g><g id="SvgjsG1551"><path id="SvgjsPath1552" d="M332.5 173L332.5 193.5L332.5 193.5L332.5 214 " stroke="#0dcaf0" stroke-width="1" fill="none" marker-start="url(#SvgjsMarker1553)"></path></g><g id="SvgjsG1555"><path id="SvgjsPath1556" d="M552.5 173L552.5 193.5L552.5 193.5L552.5 214 " stroke="#0dcaf0" stroke-width="1" fill="none" marker-start="url(#SvgjsMarker1557)"></path></g><g id="SvgjsG1559"><path id="SvgjsPath1560" d="M777.5 173L777.5 193.5L777.5 193.5L777.5 214 " stroke="#0dcaf0" stroke-width="1" fill="none" marker-start="url(#SvgjsMarker1561)"></path></g><g id="SvgjsG1563" transform="translate(921.0000000000001,268.09523809523813)"><path id="SvgjsPath1564" d="M0 381.5Q9 381.5 9 372.5L9 199.75Q9 190.75 22 190.75Q9 190.75 9 181.75L9 9Q9 0 0 0 " stroke-dasharray="10,6,3,6" stroke="rgba(255,153,51,1)" stroke-width="2" fill="none"></path><path id="SvgjsPath1565" d="M0 0L124 0L124 381.5L0 381.5Z " stroke="none" fill="none"></path><g id="SvgjsG1566"><text id="SvgjsText1567" font-family="微软雅黑" text-anchor="start" font-size="13px" width="97px" fill="#0dcaf0" font-weight="400" align="middle" lineHeight="125%" font-style="" opacity="1" y="181.125" transform="rotate(0)"><tspan id="SvgjsTspan1568" dy="16" x="27"><tspan id="SvgjsTspan1569" style="text-decoration:;">Service</tspan></tspan></text></g></g><g id="SvgjsG1570" transform="translate(924.064814814815,27.281695156695143)"><path id="SvgjsPath1571" d="M0 135Q8.6 135 8.6 126L8.6 76.5Q8.6 67.5 22 67.5Q8.6 67.5 8.6 58.5L8.6 9Q8.6 0 0 0 " stroke-dasharray="10,6,3,6" stroke="rgba(255,153,51,1)" stroke-width="2" fill="none"></path><path id="SvgjsPath1572" d="M0 0L86 0L86 135L0 135Z " stroke="none" fill="none"></path><g id="SvgjsG1573"><text id="SvgjsText1574" font-family="微软雅黑" text-anchor="start" font-size="13px" width="59px" fill="#0dcaf0" font-weight="400" align="middle" lineHeight="125%" font-style="" opacity="1" y="57.875" transform="rotate(0)"><tspan id="SvgjsTspan1575" dy="16" x="27"><tspan id="SvgjsTspan1576" style="text-decoration:;">Dapp</tspan></tspan></text></g></g><g id="SvgjsG1577" transform="translate(730.5,50.5)"><path id="SvgjsPath1578" d="M0 0L86 0L86 83L0 83Z " stroke="none" fill="url(#SvgjsPattern1579)"></path></g><g id="SvgjsG1581" transform="translate(509,50.5)"><path id="SvgjsPath1582" d="M0 0L93 0L93 83L0 83Z " stroke="none" fill="url(#SvgjsPattern1583)"></path></g><g id="SvgjsG1585" transform="translate(72,496.5)"><path id="SvgjsPath1586" d="M0 0L75 0L75 83L0 83Z " stroke="none" fill="url(#SvgjsPattern1587)"></path></g><g id="SvgjsG1589" transform="translate(47.5,568.5)"><path id="SvgjsPath1590" d="M0 0L124 0L124 40L0 40Z " stroke="none" fill="none"></path><g id="SvgjsG1591"><text id="SvgjsText1592" font-family="微软雅黑" text-anchor="middle" font-size="13px" width="124px" fill="#0dcaf0" font-weight="400" align="middle" lineHeight="125%" font-style="" opacity="1" y="10.375" transform="rotate(0)"><tspan id="SvgjsTspan1593" dy="16" x="62"><tspan id="SvgjsTspan1594" style="text-decoration:;">web</tspan></tspan></text></g></g><g id="SvgjsG1595" transform="translate(333,428.4642857142858)"><path id="SvgjsPath1596" d="M0 0L61 0L61 62L0 62Z " stroke="none" fill="url(#SvgjsPattern1597)"></path></g><g id="SvgjsG1599" transform="translate(204.50000000000003,423.56868131868134)"><path id="SvgjsPath1600" d="M0 0L70 0L70 68L0 68Z " stroke="none" fill="url(#SvgjsPattern1601)"></path></g><g id="SvgjsG1603" transform="translate(317,479.5)"><path id="SvgjsPath1604" d="M0 0L93 0L93 33L0 33Z " stroke="none" fill="none"></path><g id="SvgjsG1605"><text id="SvgjsText1606" font-family="微软雅黑" text-anchor="middle" font-size="13px" width="93px" fill="#0dcaf0" font-weight="400" align="middle" lineHeight="125%" font-style="" opacity="1" y="6.875" transform="rotate(0)"><tspan id="SvgjsTspan1607" dy="16" x="46.5"><tspan id="SvgjsTspan1608" style="text-decoration:;">分析模型</tspan></tspan></text></g></g><g id="SvgjsG1609" transform="translate(188,479.49999999999994)"><path id="SvgjsPath1610" d="M0 0L103 0L103 33L0 33Z " stroke="none" fill="none"></path><g id="SvgjsG1611"><text id="SvgjsText1612" font-family="微软雅黑" text-anchor="middle" font-size="13px" width="103px" fill="#0dcaf0" font-weight="400" align="middle" lineHeight="125%" font-style="" opacity="1" y="6.875" transform="rotate(0)"><tspan id="SvgjsTspan1613" dy="16" x="51.5"><tspan id="SvgjsTspan1614" style="text-decoration:;">任务模型</tspan></tspan></text></g></g></svg>